<?xml version="1.0" encoding="UTF-8" standalone="no"?><svg xmlns="http://www.w3.org/2000/svg" xmlns:xlink="http://www.w3.org/1999/xlink" fill="#000000" height="481.1" preserveAspectRatio="xMidYMid meet" version="1" viewBox="0.0 0.0 480.1 481.1" width="480.1" zoomAndPan="magnify"><g id="change1_1"><path d="M240.04,372.07c72.92,0,132.03-59.11,132.03-132.03V132.02c0-13.26-10.75-24-24-24H240.04 c-72.91,0-132.02,59.11-132.02,132.02v215.5c0,13.46,11.01,24.79,24.47,24.54c13.04-0.25,23.54-10.9,23.54-24v-84.01H240.04z M240.04,156.03h84.02v84.01c0,46.4-37.62,84.02-84.02,84.02h-84.01v-84.02C156.03,193.64,193.64,156.03,240.04,156.03z M480.09,24 v216.04c0,132.23-107.48,239.84-239.66,240.05c-13.1,0.02-24.12-10.41-24.39-23.51c-0.27-13.48,10.58-24.49,24-24.49 c105.89,0,192.04-86.15,192.04-192.04V48.01H240.04c-106.06,0-192.03,85.98-192.03,192.03v215.37c0,14.2-11.63,25.65-25.79,24.61 C9.8,479.11,0,468.74,0,456.09V240.04C0,107.47,107.47,0,240.04,0h216.04C469.34,0,480.09,10.75,480.09,24z" fill="#303596"/></g></svg>