<?xml version="1.0" standalone="no"?>
<!DOCTYPE svg PUBLIC "-//W3C//DTD SVG 20010904//EN"
 "http://www.w3.org/TR/2001/REC-SVG-20010904/DTD/svg10.dtd">
<svg version="1.0" xmlns="http://www.w3.org/2000/svg"
 width="962.000000pt" height="962.000000pt" viewBox="0 0 962.000000 962.000000"
 preserveAspectRatio="xMidYMid meet">
<metadata>
Created by potrace 1.14, written by Peter Selinger 2001-2017
</metadata>
<g transform="translate(0.000000,962.000000) scale(0.100000,-0.100000)"
fill="#000000" stroke="none">
<path d="M4559 9616 c-2 -2 -47 -6 -99 -10 -108 -8 -177 -14 -235 -22 -99 -14
-132 -17 -157 -18 -16 -1 -28 -3 -28 -6 0 -4 -10 -7 -22 -7 -47 -3 -68 -8 -68
-16 0 -4 -4 -6 -9 -3 -5 3 -33 1 -62 -5 -30 -6 -65 -12 -79 -15 -14 -2 -36 -7
-50 -11 -14 -3 -31 -7 -38 -9 -31 -6 -218 -56 -232 -61 -18 -8 -17 -7 -60 -17
-19 -5 -41 -13 -47 -18 -7 -6 -13 -8 -13 -4 0 3 -16 0 -35 -8 -20 -9 -38 -15
-40 -16 -11 0 -27 -5 -45 -13 -8 -4 -58 -22 -110 -41 -212 -77 -524 -223 -703
-329 -43 -26 -81 -47 -83 -47 -3 0 -20 -11 -38 -25 -18 -14 -36 -25 -40 -25
-11 0 -251 -164 -259 -177 -4 -7 -15 -13 -22 -13 -8 0 -15 -4 -15 -10 0 -5 -4
-10 -10 -10 -5 0 -19 -8 -31 -17 -41 -35 -58 -48 -85 -68 -15 -11 -32 -24 -38
-30 -6 -5 -38 -32 -71 -60 -33 -27 -65 -54 -71 -60 -6 -5 -41 -37 -78 -70
-147 -131 -341 -333 -465 -485 -33 -41 -67 -82 -74 -90 -26 -28 -164 -216
-182 -248 -11 -18 -23 -32 -27 -32 -4 0 -8 -4 -8 -9 0 -5 -25 -46 -55 -91 -30
-45 -55 -83 -55 -85 0 -1 -25 -45 -55 -96 -31 -52 -62 -105 -70 -119 -42 -71
-188 -377 -189 -395 -1 -5 -4 -12 -7 -15 -7 -6 -89 -212 -119 -300 -12 -36
-25 -72 -28 -80 -3 -8 -6 -18 -7 -22 -2 -5 -3 -9 -5 -10 -1 -3 -4 -12 -14 -53
-2 -11 -11 -40 -20 -65 -24 -71 -98 -372 -99 -407 -1 -18 -5 -33 -9 -33 -4 0
-5 -9 -3 -20 2 -11 1 -20 -3 -20 -4 0 -8 -8 -8 -17 0 -10 -3 -36 -7 -58 -18
-115 -38 -267 -43 -325 -3 -36 -8 -83 -12 -105 -3 -22 -7 -1102 -9 -2400 -3
-2302 -2 -2380 25 -2455 3 -8 6 -18 7 -22 2 -5 4 -11 5 -15 1 -5 2 -11 1 -15
0 -5 3 -8 9 -8 5 0 16 -15 25 -32 33 -70 122 -146 218 -188 58 -26 76 -30 147
-35 30 -2 57 -4 60 -5 3 -2 10 -1 15 0 11 2 18 3 76 14 67 12 162 67 224 130
62 63 122 169 129 227 1 16 6 32 9 36 4 3 7 1010 7 2237 1 1227 3 2274 5 2326
4 94 13 216 21 275 2 17 5 48 8 70 7 62 25 170 42 249 9 39 17 79 19 89 2 9
11 45 20 80 9 34 18 70 21 80 2 9 6 25 8 35 30 123 134 401 211 567 18 39 32
72 31 75 0 3 9 19 20 35 12 17 29 48 39 70 20 43 194 337 205 345 3 3 21 28
40 55 43 63 148 205 169 226 9 9 34 39 56 65 109 134 380 402 464 461 14 9 33
25 44 36 28 28 255 195 299 219 21 12 38 25 38 30 0 4 4 8 9 8 5 0 56 28 113
63 90 55 314 170 430 221 70 31 274 108 323 123 28 8 57 17 65 20 8 4 18 7 23
8 4 2 8 3 10 4 1 2 13 4 27 7 14 2 36 8 50 13 21 8 80 23 87 22 2 0 17 5 35
10 18 5 44 11 58 14 56 11 70 14 78 18 4 3 27 8 52 11 47 6 80 12 128 22 29 6
118 15 169 17 18 1 33 4 33 7 0 3 19 6 43 7 117 3 259 12 264 17 3 3 13 1 23
-4 10 -5 20 -7 24 -3 7 7 76 10 76 3 0 -3 16 -5 35 -5 19 0 35 3 35 7 0 4 11
3 25 -2 16 -6 25 -6 25 0 0 6 9 6 25 0 16 -6 25 -6 25 0 0 6 9 6 25 0 15 -6
26 -6 30 1 4 5 11 7 16 3 16 -9 69 -11 69 -2 0 4 11 3 25 -2 16 -6 25 -6 25 0
0 6 9 6 25 0 16 -6 25 -6 25 0 0 6 9 6 25 0 15 -6 26 -6 30 0 4 6 13 7 23 1
11 -6 24 -6 35 0 9 6 17 6 17 2 0 -10 63 -8 79 2 6 3 11 1 11 -5 0 -8 6 -8 20
0 14 8 20 8 20 0 0 -8 6 -8 20 0 14 8 20 8 20 0 0 -8 6 -8 20 0 14 8 20 8 20
0 0 -8 6 -8 20 0 14 8 20 8 20 0 0 -8 6 -8 20 0 14 8 20 8 20 0 0 -8 6 -8 20
0 14 8 20 8 20 0 0 -7 6 -8 18 -1 21 11 33 11 54 0 10 -5 19 -5 23 0 3 6 17 6
35 1 18 -5 30 -5 30 0 0 6 10 6 25 0 15 -6 26 -6 30 0 4 6 13 7 24 1 10 -6 23
-6 31 -1 9 5 19 5 26 -1 8 -7 14 -6 19 1 4 6 12 7 24 0 12 -6 22 -5 28 1 8 8
13 7 17 0 5 -8 13 -8 26 -1 12 6 21 7 25 0 4 -6 15 -6 30 0 14 5 25 6 25 2 0
-8 52 -8 66 1 6 3 16 2 24 -3 9 -5 19 -5 26 1 7 6 15 6 18 1 3 -5 28 -6 56 -2
27 4 50 4 50 1 0 -8 54 -6 66 2 6 3 16 2 24 -3 9 -5 19 -5 26 1 8 7 14 6 19
-1 4 -7 12 -7 25 0 12 6 21 7 25 0 4 -6 15 -6 30 0 14 5 25 6 25 2 0 -9 58 -8
66 1 4 3 15 2 25 -3 12 -7 20 -7 24 0 4 7 12 7 25 0 11 -6 21 -6 25 -1 3 6 17
6 35 1 18 -5 30 -5 30 0 0 6 10 6 25 0 15 -6 26 -6 30 1 4 5 13 6 22 1 8 -5
33 -6 54 -2 21 4 39 5 39 1 0 -8 53 -6 66 2 6 3 16 2 24 -3 9 -5 19 -5 26 1 8
7 14 6 19 -1 4 -7 12 -7 25 0 12 6 21 7 25 0 4 -6 15 -6 30 0 14 5 25 6 25 2
0 -9 58 -8 66 1 4 3 15 2 25 -3 12 -7 20 -7 24 0 4 7 12 7 25 0 11 -6 21 -6
25 -1 3 6 17 6 35 1 18 -5 30 -5 30 0 0 6 10 6 25 0 15 -6 26 -6 30 0 4 6 13
7 23 1 9 -5 26 -5 37 -1 11 4 28 4 37 -1 10 -5 19 -5 23 0 3 6 17 6 35 1 18
-5 30 -5 30 0 0 6 10 6 25 0 15 -6 26 -6 30 0 4 6 13 7 24 1 10 -6 23 -6 31
-1 9 5 19 5 26 -1 8 -7 14 -6 19 1 4 6 12 7 24 0 12 -6 22 -5 28 1 8 8 13 7
17 0 5 -8 13 -8 26 -1 12 6 21 7 25 0 4 -6 15 -6 30 0 14 5 25 6 25 2 0 -9 58
-8 66 1 4 3 15 2 25 -3 12 -7 20 -7 24 0 4 6 11 7 18 3 14 -8 58 -9 80 0 9 3
17 2 17 -4 0 -6 7 -6 20 1 14 8 20 8 20 0 0 -8 6 -8 20 0 14 8 20 8 20 0 0 -8
6 -8 20 0 14 8 20 8 20 0 0 -8 6 -8 20 0 14 8 20 8 20 0 0 -8 6 -8 20 0 14 8
20 8 20 0 0 -8 6 -8 20 0 14 8 20 8 20 0 0 -7 6 -8 19 -1 10 6 21 7 25 4 9 -9
7 -4123 -2 -4123 -4 0 -8 -19 -8 -43 -2 -51 -11 -149 -19 -197 -3 -19 -7 -51
-9 -70 -2 -19 -7 -46 -10 -60 -3 -14 -8 -36 -10 -50 -11 -63 -28 -134 -56
-245 -38 -149 -38 -149 -40 -152 -2 -2 -3 -6 -4 -10 -19 -70 -82 -254 -106
-308 -9 -18 -31 -73 -35 -85 -1 -3 -12 -27 -25 -55 -13 -27 -24 -52 -24 -55
-2 -8 -111 -225 -116 -230 -3 -3 -16 -25 -29 -50 -26 -47 -149 -248 -164 -265
-7 -9 -75 -104 -125 -174 -9 -13 -26 -32 -36 -42 -11 -11 -17 -19 -14 -19 4 0
-11 -19 -32 -42 -21 -24 -78 -88 -127 -143 -102 -114 -196 -206 -342 -337 -61
-55 -220 -178 -230 -178 -5 0 -11 -4 -13 -8 -4 -12 -224 -162 -237 -162 -6 0
-11 -4 -11 -9 0 -5 -8 -11 -17 -15 -10 -3 -31 -14 -48 -25 -74 -48 -390 -208
-445 -226 -3 -1 -18 -7 -35 -14 -95 -41 -365 -135 -415 -145 -14 -3 -43 -10
-65 -16 -72 -19 -80 -21 -105 -26 -14 -3 -38 -9 -55 -14 -16 -5 -47 -12 -69
-16 -21 -3 -48 -8 -60 -10 -11 -3 -37 -7 -56 -10 -19 -2 -42 -6 -50 -9 -8 -2
-37 -7 -65 -10 -27 -3 -63 -8 -80 -10 -39 -6 -170 -16 -262 -20 -39 -1 -75 -5
-80 -8 -5 -3 -15 -2 -23 3 -7 4 -24 4 -37 -1 -16 -6 -22 -5 -18 1 4 6 -2 7
-18 1 -13 -5 -30 -5 -37 -1 -9 5 -20 4 -27 -2 -7 -6 -13 -8 -13 -5 0 11 -104
-23 -155 -50 -27 -15 -63 -39 -80 -54 -16 -15 -40 -36 -52 -47 -13 -11 -23
-24 -23 -30 0 -6 -3 -12 -7 -14 -5 -2 -18 -22 -31 -45 -71 -131 -81 -286 -25
-411 9 -21 17 -42 18 -48 4 -16 33 -51 96 -113 62 -63 158 -116 229 -127 89
-15 133 -17 198 -11 17 2 32 -1 32 -6 0 -4 6 -5 12 0 7 4 38 8 68 9 30 1 98 5
150 9 99 8 116 9 215 20 33 4 74 8 90 10 17 1 30 4 30 5 0 1 11 3 25 5 14 2
43 6 65 10 22 4 49 9 60 11 11 1 31 5 45 7 14 3 43 8 65 12 22 4 43 9 46 11 3
2 20 6 37 9 83 14 363 90 393 105 10 6 19 9 19 6 0 -2 30 7 68 21 37 13 74 26
82 28 8 2 49 16 90 32 88 35 108 42 115 43 3 0 20 7 38 17 17 9 37 18 44 19
31 5 465 227 498 254 8 7 15 9 15 4 0 -5 4 -4 8 1 4 6 23 19 42 29 112 61 488
325 587 413 18 15 43 36 55 46 41 32 139 120 222 199 45 43 84 78 89 78 4 0 7
4 7 9 0 4 32 42 71 82 59 61 201 223 268 304 35 43 168 222 196 265 16 25 33
47 37 48 5 2 8 10 8 18 0 8 4 14 9 14 5 0 14 14 21 30 7 17 16 30 21 30 5 0 9
7 9 15 0 8 4 15 8 15 4 0 13 12 20 27 17 41 53 98 63 101 5 2 9 12 9 23 0 10
3 19 8 19 4 0 12 10 18 23 20 41 79 152 84 157 5 5 52 99 55 110 1 3 19 41 40
85 22 44 40 82 40 85 2 5 5 13 49 118 28 66 86 223 112 302 8 25 18 52 21 60
3 8 8 24 10 35 6 28 9 38 16 55 6 15 65 234 72 268 2 9 9 40 15 67 6 28 13 62
15 77 2 15 6 35 9 45 3 10 8 34 10 53 3 19 10 59 15 89 6 29 8 57 5 62 -3 5
-2 9 3 9 4 0 8 10 9 23 0 12 3 45 7 72 3 28 9 84 13 125 3 41 8 91 12 110 3
19 7 1095 9 2391 3 2063 2 2360 -11 2397 -9 23 -16 44 -16 47 -5 37 -43 103
-92 161 -46 56 -114 102 -199 137 l-54 22 -2336 2 c-1285 2 -2338 1 -2340 -1z"/>
<path d="M4730 7463 c0 -4 -33 -9 -73 -10 -90 -2 -178 -11 -272 -28 -11 -1
-38 -6 -60 -10 -62 -10 -193 -42 -270 -65 -38 -12 -74 -23 -80 -24 -5 -2 -23
-8 -40 -15 -16 -7 -42 -15 -57 -18 -16 -3 -28 -9 -28 -14 0 -5 -7 -9 -16 -9
-26 0 -299 -131 -356 -171 -14 -11 -31 -19 -37 -19 -6 0 -11 -4 -11 -10 0 -5
-5 -10 -11 -10 -13 0 -212 -138 -247 -170 -12 -11 -23 -20 -25 -20 -15 0 -263
-242 -345 -336 -58 -67 -142 -175 -142 -183 0 -3 -11 -19 -25 -35 -14 -16 -25
-33 -25 -37 0 -4 -6 -14 -13 -21 -46 -47 -254 -458 -239 -472 3 -3 1 -6 -5 -6
-5 0 -10 -6 -11 -12 -1 -21 -41 -130 -52 -143 -5 -6 -8 -14 -5 -17 3 -3 -4
-34 -15 -69 -29 -91 -77 -335 -83 -421 -2 -26 -6 -50 -10 -54 -3 -4 -6 -1044
-7 -2313 0 -2077 1 -2312 16 -2361 59 -206 221 -347 419 -366 75 -7 75 -7 105
-1 91 18 195 61 227 93 8 7 22 19 31 26 52 38 132 167 148 238 4 19 9 429 11
910 2 481 5 881 8 888 3 9 10 10 23 3 11 -6 24 -6 34 0 11 6 19 5 23 -1 5 -7
11 -8 19 -1 7 6 18 6 26 1 7 -4 23 -4 36 0 12 5 25 6 28 2 10 -9 46 -10 46 -1
0 5 10 5 23 0 12 -5 31 -5 42 -1 11 4 28 3 38 -2 9 -5 17 -5 17 -1 0 4 14 8
30 8 17 0 30 -2 30 -5 0 -7 55 -4 68 4 6 3 13 2 17 -4 4 -7 13 -7 26 1 15 7
24 7 34 -1 9 -8 15 -8 20 0 4 6 12 7 23 1 9 -5 26 -5 39 0 13 5 25 4 28 -1 4
-6 13 -7 23 -1 11 6 24 6 35 0 9 -6 17 -6 17 -2 0 10 41 10 56 0 5 -3 16 -2
24 3 9 5 19 5 26 -1 8 -7 14 -6 19 1 4 7 12 7 24 0 10 -5 21 -6 25 -3 9 9 56
10 56 2 0 -4 13 -4 30 1 18 5 32 5 36 -1 4 -7 10 -6 18 0 7 6 18 6 26 1 7 -4
23 -4 36 0 12 5 25 6 28 2 10 -9 46 -10 46 -1 0 5 10 5 23 0 12 -5 31 -5 42
-1 11 4 28 3 38 -2 9 -5 17 -5 17 -1 0 4 14 8 30 8 17 0 30 -2 30 -5 0 -7 55
-4 68 4 6 3 13 2 17 -4 4 -7 13 -7 26 1 15 7 24 7 34 -1 9 -8 15 -8 20 0 4 6
12 7 23 1 9 -5 26 -5 39 0 13 5 25 4 28 -1 3 -5 15 -6 28 -1 12 5 32 5 45 0
12 -5 22 -5 22 -1 0 4 35 7 78 8 77 1 139 7 297 28 91 13 327 70 381 92 17 7
34 10 38 7 3 -4 6 -1 6 6 0 7 5 9 10 6 6 -3 10 -1 10 5 0 6 4 8 10 5 5 -3 24
1 42 9 18 8 57 24 86 35 80 31 302 143 302 153 0 4 7 8 15 8 9 0 21 4 28 10
26 22 120 80 128 80 5 0 9 4 9 9 0 5 8 12 18 15 9 3 35 21 57 41 22 19 43 35
46 35 3 0 15 8 26 18 11 9 47 40 79 67 54 46 252 241 282 279 8 9 35 42 61 74
39 47 114 150 161 222 61 92 169 297 216 410 53 127 124 351 140 440 2 14 9
45 14 70 6 25 12 61 14 80 3 19 5 35 6 35 1 0 6 32 17 110 9 70 15 2524 6
2538 -4 7 -8 17 -10 22 -1 6 -4 20 -7 31 -8 39 -68 144 -89 159 -12 8 -18 15
-14 15 4 0 -8 14 -26 31 -37 36 -141 99 -163 99 -9 0 -25 5 -37 12 -12 6 -42
12 -67 14 -25 1 -46 3 -47 4 -8 7 -30 5 -45 -2 -11 -5 -18 -5 -18 1 0 7 -9 7
-25 1 -15 -6 -27 -6 -30 0 -3 6 -15 6 -30 0 -17 -7 -25 -6 -25 1 0 8 -4 8 -13
1 -7 -6 -18 -7 -25 -3 -7 4 -33 5 -57 1 -25 -4 -45 -3 -45 1 0 5 -11 4 -25 -1
-13 -5 -26 -6 -29 -1 -3 4 -28 5 -56 1 -27 -4 -50 -3 -50 2 0 4 -11 3 -25 -2
-13 -5 -26 -6 -29 -2 -5 9 -82 6 -98 -4 -6 -4 -8 -3 -5 3 4 6 -10 7 -38 3 -25
-4 -45 -3 -45 1 0 5 -11 4 -25 -1 -13 -5 -26 -6 -29 -2 -5 8 -85 6 -93 -2 -3
-3 -15 -1 -27 4 -13 4 -29 4 -39 -1 -11 -7 -17 -6 -17 0 0 7 -8 7 -23 2 -13
-5 -30 -5 -37 -1 -8 5 -22 4 -32 -1 -13 -7 -18 -6 -18 2 0 9 -3 9 -14 0 -8 -7
-17 -8 -19 -4 -6 10 -82 7 -99 -3 -6 -4 -8 -3 -5 3 4 6 -10 7 -38 3 -25 -4
-45 -3 -45 1 0 5 -11 4 -25 -1 -13 -5 -26 -6 -29 -1 -3 4 -28 5 -56 1 -27 -4
-50 -3 -50 2 0 4 -11 3 -25 -2 -13 -5 -27 -6 -29 -1 -3 4 -26 5 -51 1 -24 -4
-47 -5 -50 -2 -8 8 -65 8 -65 0 0 -4 -12 -3 -26 2 -18 7 -31 7 -39 0 -9 -7
-15 -8 -19 -1 -4 6 -15 7 -30 1 -12 -4 -29 -4 -36 0 -8 5 -22 4 -32 -1 -13 -7
-18 -6 -18 2 0 9 -3 9 -14 0 -8 -7 -17 -8 -19 -4 -6 10 -82 7 -99 -3 -6 -4 -8
-3 -5 3 4 6 -10 7 -38 3 -25 -4 -45 -4 -45 -1 0 8 -53 6 -66 -2 -6 -3 -16 -2
-24 3 -7 4 -23 5 -35 0 -12 -4 -29 -4 -38 1 -9 6 -17 6 -17 2z m155 -963 c3 5
13 6 22 3 14 -6 70 -7 91 -3 20 4 102 1 110 -4 6 -3 13 -2 17 3 3 6 13 7 22 4
14 -6 70 -7 91 -3 20 4 102 1 110 -4 6 -3 13 -2 17 3 3 6 13 7 22 4 14 -6 70
-7 91 -3 20 4 102 1 110 -4 6 -3 13 -2 17 3 3 6 13 7 22 4 14 -6 71 -7 91 -3
4 1 30 1 57 0 48 -1 59 -1 88 1 6 0 21 0 32 -1 11 -1 34 -1 50 -1 17 1 38 1
48 1 9 0 23 0 30 1 6 0 21 0 32 -1 11 -1 34 -1 50 -1 17 1 38 1 48 1 9 0 23 0
30 1 6 0 21 0 32 -1 11 -1 34 -1 50 -1 17 1 38 1 48 1 9 0 23 0 30 1 6 0 29
-1 50 -3 21 -3 40 -1 42 2 3 4 16 5 30 2 l25 -4 -1 -907 c0 -498 -4 -929 -9
-956 -4 -28 -11 -75 -15 -105 -4 -30 -9 -58 -12 -62 -2 -5 -6 -16 -8 -26 -33
-175 -162 -464 -267 -597 -170 -217 -316 -351 -508 -466 -109 -65 -274 -142
-284 -132 -3 4 -6 0 -6 -7 0 -7 -3 -11 -6 -7 -3 3 -18 1 -33 -5 -35 -14 -147
-44 -191 -52 -19 -3 -46 -8 -60 -11 -87 -19 -259 -23 -1063 -23 l-897 -1 1
907 c1 903 1 923 34 1114 3 20 15 67 27 105 11 37 20 76 20 86 -1 9 3 17 8 17
4 0 11 11 14 25 3 13 11 37 18 52 6 15 12 30 12 33 5 21 76 156 117 223 95
152 243 320 374 423 28 21 52 42 55 45 3 3 25 19 50 34 25 15 47 31 50 34 15
18 266 144 288 144 6 0 12 4 12 9 0 5 6 8 13 7 6 -1 21 1 32 5 49 19 130 43
170 51 6 2 37 8 70 15 74 16 93 18 230 25 60 4 112 8 114 10 2 3 12 0 22 -5
11 -7 20 -7 24 0z"/>
</g>
</svg>
