<svg viewBox="0 0 24 24" xmlns="http://www.w3.org/2000/svg">
  <path fill="#f3ba2f" d="M12,22c5.523,0,10-4.477,10-10S17.523,2,12,2,2,6.477,2,12s4.477,10,10,10Z"/>
  <path fill="#fff" d="M9.573,11.003l2.427-2.427,2.429,2.429,1.413-1.413-3.841-3.841-3.84,3.84,1.413,1.413Zm-3.823,.997l1.413-1.413,1.413,1.413-1.413,1.413-1.413-1.413Zm3.823,.998l2.427,2.427,2.429-2.429,1.413,1.412-3.841,3.842-3.84-3.84-.002-.002,1.414-1.411Zm5.852-.998l1.413-1.413,1.413,1.413-1.413,1.413-1.413-1.413Zm-1.992-.001h.001s-1.434,1.435-1.434,1.435l-1.432-1.431-.002-.002,.002-.002,.251-.251,.122-.122,1.059-1.059,1.433,1.433h0Z"/>
</svg>