<svg viewBox="0 0 24 24" xmlns="http://www.w3.org/2000/svg">
  <path d="M8,11h5.5c1.379,0,2.5-1.122,2.5-2.5s-1.121-2.5-2.5-2.5h-5.5v5Zm0,7h5.5c1.379,0,2.5-1.122,2.5-2.5s-1.121-2.5-2.5-2.5h-5.5v5Zm0,2h-1c-.553,0-1-.448-1-1V5c0-.552,.447-1,1-1h1s0-1,0-1c0-.552,.447-1,1-1s1,.448,1,1c0,0,0,1,0,1h2s0-1,0-1c0-.552,.447-1,1-1s1,.448,1,1v1.028h0c2.247,.249,4,2.16,4,4.472,0,1.412-.654,2.674-1.674,3.5h0c1.021,.825,1.675,2.088,1.675,3.5,0,2.312-1.753,4.223-4,4.472h0s0,1.028,0,1.028c0,.552-.447,1-1,1s-1-.448-1-1v-1s-2,0-2,0c0,0,0,1,0,1,0,.552-.447,1-1,1s-1-.448-1-1c0,0,0-1,0-1Z"/>
</svg>
