<?xml version="1.0" encoding="UTF-8"?>
<svg id="Calendar" xmlns="http://www.w3.org/2000/svg" width="24" height="24" xmlns:xlink="http://www.w3.org/1999/xlink" viewBox="0 0 24 24">
  <defs>
    <style>
      .cls-1 {
        clip-path: url(#clippath);
      }

      .cls-2 {
        fill: none;
      }
    </style>
    <clipPath id="clippath">
      <rect class="cls-2" y="0" width="24" height="24"/>
    </clipPath>
  </defs>
  <g id="Calendar-2" data-name="Calendar">
    <g class="cls-1">
      <path d="m20,4h-2v-1c0-.552-.448-1-1-1s-1,.448-1,1v1h-8v-1c0-.552-.448-1-1-1s-1,.448-1,1v1h-2c-1.105,0-2,.895-2,2v12c0,1.105.895,2,2,2h16c1.105,0,2-.895,2-2V6c0-1.105-.895-2-2-2Zm0,2v2H4v-2h16ZM4,18v-8h16v8H4Z"/>
    </g>
  </g>
</svg>