<svg viewBox="0 0 24 24" xmlns="http://www.w3.org/2000/svg">
  <path d="M20,19c0,.552-.448,1-1,1H5c-.552,0-1-.448-1-1s.448-1,1-1h14c.552,0,1,.448,1,1Zm2-10c0-.552-.448-1-1-1s-1,.448-1,1c0,.19,.068,.358,.16,.51l-1.105,1.658c-.347,.52-.93,.832-1.555,.832s-1.208-.312-1.555-.832l-2.515-3.773c.352-.36,.57-.852,.57-1.395,0-1.105-.896-2-2-2s-2,.895-2,2c0,.543,.218,1.035,.57,1.395l-2.515,3.773c-.347,.52-.93,.832-1.555,.832s-1.208-.312-1.555-.832l-1.105-1.658c.092-.152,.16-.32,.16-.51,0-.552-.448-1-1-1s-1,.448-1,1c0,.446,.298,.811,.701,.94l1.129,5.27c.099,.461,.506,.79,.978,.79h14.383c.471,0,.879-.329,.978-.79l1.129-5.27c.404-.129,.701-.493,.701-.94Z"/>
</svg>