<svg xmlns="http://www.w3.org/2000/svg" viewBox="0 0 24 24">
  <path d="m18.9419,5.34c-1.2946-.626-2.6789-1.0809-4.1262-1.34-.1777.3321-.3854.7788-.5286,1.1341-1.5384-.2391-3.0627-.2391-4.5729,0-.1431-.3553-.3555-.802-.5348-1.1341-1.4488.2591-2.8347.7157-4.1293,1.3433-2.6113,4.078-3.3192,8.0548-2.9652,11.9751,1.7319,1.3367,3.4104,2.1486,5.0605,2.68.4074-.5795.7708-1.1955,1.0838-1.8448-.5962-.2341-1.1672-.523-1.7068-.8584.1431-.1096.2832-.2242.4184-.3421,3.2908,1.5907,6.8664,1.5907,10.118,0,.1369.1179.2768.2325.4184.3421-.5411.3371-1.1137.626-1.7099.8601.313.6476.6748,1.2653,1.0838,1.8447,1.6517-.5313,3.3318-1.3433,5.0637-2.6816.4153-4.5446-.7094-8.4848-2.9731-11.9784Zm-10.2643,9.5675c-.9879,0-1.798-.9531-1.798-2.1138s.7928-2.1154,1.798-2.1154,1.8153.9531,1.798,2.1154c.0016,1.1606-.7928,2.1138-1.798,2.1138Zm6.6446,0c-.9879,0-1.798-.9531-1.798-2.1138s.7928-2.1154,1.798-2.1154,1.8153.9531,1.798,2.1154c0,1.1606-.7928,2.1138-1.798,2.1138Z" style="fill: #5865f2;"/>
</svg>