<svg viewBox="0 0 24 24" xmlns="http://www.w3.org/2000/svg">
  <path d="M12 1C5.925 1 1 5.925 1 12s4.925 11 11 11 11-4.925 11-11S18.075 1 12 1Zm0 20.193a9.193 9.193 0 1 1 0-18.386 9.193 9.193 0 0 1 0 18.386ZM15.5 8.62a.758.758 0 1 1-1.438.48c-.18-.538-.829-1.167-2.062-1.167-1.022 0-1.628.687-1.698 1.365-.087.834.624 1.512 1.853 1.77 2.46.514 3.181 2.159 3.051 3.411-.135 1.31-1.138 2.346-2.448 2.64v.95a.759.759 0 0 1-1.517 0v-.924c-1.563-.252-2.447-1.262-2.742-2.144a.758.758 0 1 1 1.439-.48c.18.538.828 1.167 2.062 1.167 1.021 0 1.627-.687 1.698-1.365.086-.835-.624-1.513-1.854-1.77-2.459-.515-3.18-2.16-3.05-3.411.135-1.31 1.137-2.346 2.447-2.64v-.95a.759.759 0 0 1 1.518 0v.924c1.562.251 2.447 1.261 2.742 2.144Z"/>
</svg>
