<svg viewBox="0 0 24 24" xmlns="http://www.w3.org/2000/svg">
  <path d="M14,12c0,1.105-.895,2-2,2s-2-.895-2-2,.895-2,2-2,2,.895,2,2Zm4-7c-.551,0-1,.449-1,1s.449,1,1,1,1-.449,1-1-.449-1-1-1m0-2c1.657,0,3,1.343,3,3s-1.343,3-3,3-3-1.343-3-3,1.343-3,3-3h0Zm4,9c0-.698-.072-1.394-.215-2.069-.114-.54-.639-.887-1.186-.771-.54,.114-.886,.645-.771,1.186,.114,.539,.172,1.096,.172,1.655,0,4.411-3.589,8-8,8s-8-3.589-8-8S7.589,4,12,4c.559,0,1.115,.058,1.655,.171,.54,.114,1.07-.232,1.185-.772s-.232-1.071-.772-1.185c-.676-.142-1.371-.214-2.067-.214C6.486,2,2,6.486,2,12s4.486,10,10,10,10-4.486,10-10Z"/>
</svg>