<svg viewBox="0 0 24 24" xmlns="http://www.w3.org/2000/svg">
  <path d="M14,21h-4c-.553,0-1-.448-1-1v-1.673c-.341-.162-.668-.351-.978-.565l-1.45,.837c-.479,.275-1.09,.112-1.366-.366l-2-3.464c-.276-.479-.112-1.09,.366-1.366l1.45-.837c-.03-.376-.03-.753,0-1.129l-1.45-.837c-.229-.133-.397-.351-.466-.607s-.033-.529,.1-.759l2-3.464c.133-.229,.352-.397,.607-.466,.255-.069,.528-.034,.759,.1l1.449,.836c.311-.215,.638-.404,.979-.565v-1.673c0-.552,.447-1,1-1h4c.553,0,1,.448,1,1v1.673c.341,.162,.668,.351,.979,.565l1.449-.836c.229-.134,.503-.169,.759-.1,.256,.068,.475,.236,.607,.466l2,3.464c.276,.479,.112,1.09-.366,1.366l-1.45,.837c.03,.376,.03,.753,0,1.129l1.45,.837c.229,.133,.397,.351,.466,.607s.033,.529-.1,.759l-2,3.464c-.133,.229-.352,.397-.607,.466-.256,.069-.529,.033-.759-.1l-1.449-.836c-.311,.215-.638,.404-.979,.565v1.673c0,.552-.447,1-1,1Zm-3-2h2v-1.341c0-.424,.268-.802,.667-.943,.581-.205,1.113-.512,1.58-.913,.322-.277,.783-.319,1.151-.107l1.163,.671,1-1.732-1.161-.67c-.366-.211-.56-.63-.483-1.046,.111-.609,.111-1.226,0-1.832-.077-.417,.117-.836,.483-1.048l1.162-.671-1-1.732-1.161,.67c-.247,.143-.544,.172-.816,.083-.122-.041-.239-.106-.337-.19-.469-.401-1-.708-1.579-.912-.4-.141-.668-.519-.668-.943v-1.341h-2v1.341c0,.424-.268,.802-.668,.943-.579,.204-1.11,.511-1.579,.912-.098,.084-.212,.148-.334,.189-.271,.092-.57,.062-.819-.082l-1.161-.67-1,1.732,1.161,.67c.366,.211,.56,.63,.483,1.046-.111,.609-.111,1.225,0,1.832,.077,.417-.117,.836-.483,1.048l-1.162,.671,1,1.732,1.161-.67c.365-.213,.826-.169,1.149,.105,.471,.402,1.003,.709,1.584,.915,.399,.141,.667,.519,.667,.943v1.341Zm1-3c-2.206,0-4-1.794-4-4s1.794-4,4-4,4,1.794,4,4-1.794,4-4,4Zm0-6c-1.103,0-2,.897-2,2s.897,2,2,2,2-.897,2-2-.897-2-2-2Z"/>
</svg>