<svg viewBox="0 0 24 24" xmlns="http://www.w3.org/2000/svg">
  <path d="M11.938,2C6.472,2,2,6.498,2,11.995c0,4.373,2.857,8.121,6.832,9.496,.497,.125,.621-.25,.621-.5v-1.749c-2.733,.625-3.354-1.249-3.354-1.249-.497-1.124-1.118-1.499-1.118-1.499-.87-.625,.124-.625,.124-.625,.994,.125,1.491,1,1.491,1,.87,1.624,2.36,1.124,2.857,.875,.124-.625,.373-1.124,.621-1.374-2.236-.25-4.472-1.124-4.472-4.998,0-1.124,.373-1.999,.994-2.624-.124-.25-.497-1.249,.124-2.624,0,0,.87-.25,2.733,1,.745-.25,1.615-.375,2.484-.375s1.739,.125,2.484,.375c1.863-1.249,2.733-1,2.733-1,.497,1.374,.248,2.374,.124,2.624,.621,.75,.994,1.624,.994,2.624,0,3.873-2.36,4.623-4.596,4.873,.373,.5,.745,1.124,.745,1.999v2.749c0,.25,.124,.625,.745,.5,3.975-1.374,6.832-5.123,6.832-9.496-.124-5.497-4.596-9.995-10.062-9.995Z"/>
</svg>