<svg xmlns="http://www.w3.org/2000/svg" viewBox="0 0 24 24">
  <path d="m11.9998,10.1818v3.8727h5.3818c-.2363,1.2455-.9455,2.3-2.0091,3.0091l3.2454,2.5182c1.8909-1.7454,2.9818-4.3091,2.9818-7.3545,0-.7091-.0636-1.391-.1818-2.0454h-9.4181Z" style="fill: #4285f4;"/>
  <path d="m6.3956,13.9034l-.732.5603-2.591,2.0182h0c1.6454,3.2636,5.0179,5.5182,8.927,5.5182,2.6999,0,4.9635-.8909,6.6181-2.4182l-3.2454-2.5182c-.8909.6-2.0273.9637-3.3727.9637-2.6,0-4.809-1.7545-5.6-4.1182l-.0041-.0058Z" style="fill: #34a853;"/>
  <path d="m3.0726,7.5182c-.6818,1.3454-1.0726,2.8636-1.0726,4.4818s.3909,3.1364,1.0726,4.4818c0,.009,3.3273-2.5818,3.3273-2.5818-.2-.6-.3182-1.2363-.3182-1.9s.1182-1.3.3182-1.9l-3.3273-2.5816Z" style="fill: #fbbc05;"/>
  <path d="m11.9998,5.9818c1.4727,0,2.7818.5091,3.8273,1.4909l2.8636-2.8636c-1.7364-1.6182-3.9908-2.6091-6.6909-2.6091-3.9091,0-7.2817,2.2454-8.9272,5.5182l3.3272,2.5818c.7909-2.3637,3-4.1182,5.6-4.1182h0Z" style="fill: #ea4335;"/>
</svg>