<svg viewBox="0 0 24 24" fill="none" xmlns="http://www.w3.org/2000/svg">
<circle cx="12" cy="12" r="12" fill="#5751FC"/>
<path d="M4 7C4.11853 7.29985 4.354 7.55074 4.54464 7.79208C4.80155 8.11728 5.04535 8.45698 5.30228 8.78218C5.4688 8.99297 5.73602 9.25079 5.8216 9.52475C5.88914 9.74114 5.84691 10.0398 5.84691 10.2673V11.802V17H7.98765V7H4ZM8.86914 7V17H11.0099V13.5842H14.0321V11.1089H12.0173C11.7685 11.1089 11.3723 11.1976 11.142 11.0791C11.0147 11.0135 11.0124 10.855 11.0101 10.7129C11.0053 10.4165 11.0053 10.1181 11.0101 9.82178C11.012 9.69881 11.0098 9.55327 11.1072 9.47663C11.2927 9.33054 11.7172 9.42574 11.9333 9.42574H14.0741V7H8.86914ZM14.9556 7V17H21C20.6844 16.3561 20.1278 15.8182 19.7059 15.2673C19.5459 15.0585 19.3678 14.7159 19.1411 14.6041C18.9686 14.5191 18.7074 14.5743 18.5235 14.5743H17.1383V7H14.9556Z" fill="white"/>
</svg>
