<svg viewBox="0 0 24 24" xmlns="http://www.w3.org/2000/svg">
  <path d="M20.106,3H3.783c-.447,0-.783,.338-.783,.787V20.325c0,.338,.335,.675,.783,.675H20.217c.447,0,.783-.338,.783-.787V3.787c-.112-.45-.447-.787-.894-.787Zm-11.851,15.3h-2.571V9.75h2.683v8.55h-.112Zm-1.23-9.675c-.894,0-1.565-.787-1.565-1.575,0-.9,.671-1.575,1.565-1.575s1.565,.675,1.565,1.575c-.112,.788-.783,1.575-1.565,1.575Zm11.18,9.675h-2.683v-4.163c0-1.012,0-2.25-1.342-2.25s-1.565,1.125-1.565,2.25v4.275h-2.683V9.75h2.571v1.125c.335-.675,1.23-1.35,2.46-1.35,2.683,0,3.13,1.8,3.13,4.05v4.725h.112Z"/>
</svg>