<?xml version="1.0" encoding="UTF-8"?>
<svg id="Liquidity" xmlns="http://www.w3.org/2000/svg" width="24" height="24" xmlns:xlink="http://www.w3.org/1999/xlink" viewBox="0 0 24 24">
  <defs>
    <style>
      .cls-1 {
        clip-path: url(#clippath);
      }

      .cls-2 {
        fill: none;
      }
    </style>
    <clipPath id="clippath">
      <rect class="cls-2" width="24" height="24"/>
    </clipPath>
  </defs>
  <g id="Liquidity-2" data-name="Liquidity">
    <g class="cls-1">
      <path d="m12,4.639c2.649,2.804,5.976,7.132,6,9.594-.027.798-.199,1.566-.513,2.284-.316.724-.76,1.364-1.319,1.903-.556.537-1.198.946-1.906,1.217-.631.241-1.289.364-1.957.364-.079,0-.157-.001-.236-.005l-.092-.004-.092.004c-.075.004-.151.005-.226.005-.633,0-1.297-.126-1.92-.365-.708-.271-1.349-.68-1.906-1.217-.559-.539-1.003-1.179-1.319-1.904-.318-.726-.491-1.5-.513-2.257,0-2.458,3.342-6.808,6-9.62m0-2.638c-.126,0-.251.047-.349.141-.312.304-7.651,7.492-7.651,12.117v.014c.031,1.056.259,2.081.681,3.044.422.965,1.015,1.82,1.764,2.542.75.724,1.618,1.277,2.58,1.645.859.329,1.756.497,2.635.497.107,0,.214-.002.32-.007.109.005.217.007.326.007.914,0,1.811-.167,2.672-.496.961-.368,1.829-.921,2.58-1.645.749-.722,1.342-1.577,1.764-2.542.421-.963.65-1.988.681-3.058,0-4.625-7.339-11.813-7.651-12.117-.097-.094-.223-.141-.349-.141h0Z"/>
    </g>
  </g>
</svg>