<svg xmlns="http://www.w3.org/2000/svg" viewBox="0 0 24 24">
  <path d="m20,21h-8c-.5527,0-1-.4478-1-1s.4473-1,1-1h7V5h-6c-.5527,0-1-.4478-1-1s.4473-1,1-1h7c.5527,0,1,.4478,1,1v16c0,.5522-.4473,1-1,1Zm-4-9c0-.5522-.4473-1-1-1H4c-.5527,0-1,.4478-1,1s.4473,1,1,1h11c.5527,0,1-.4478,1-1Zm-4.293,4.707l4-4c.3906-.3906.3906-1.0234,0-1.4141l-4-4c-.3906-.3906-1.0234-.3906-1.4141,0s-.3906,1.0234,0,1.4141l3.293,3.293-3.293,3.293c-.3906.3906-.3906,1.0234,0,1.4141.1953.1953.4512.293.707.293s.5117-.0977.707-.293Z"/>
</svg>