<svg viewBox="0 0 24 24" xmlns="http://www.w3.org/2000/svg">
  <path d="M20,2l-2.78,6.94c-1.31-1.12-2.98-1.84-4.82-1.93l2-5.01h5.6ZM4,2l2.78,6.94c1.31-1.12,2.98-1.84,4.82-1.93l-2-5.01H4Zm15,13c0,3.866-3.134,7-7,7s-7-3.134-7-7,3.134-7,7-7,7,3.134,7,7Zm-3.899-1.271l-1.824-.265c-.091-.013-.17-.07-.21-.153l-.816-1.653c-.103-.208-.399-.208-.501,0l-.816,1.653c-.041,.083-.119,.14-.21,.153l-1.824,.265c-.229,.033-.321,.315-.155,.477l1.32,1.287c.066,.064,.096,.157,.08,.247l-.312,1.817c-.039,.228,.2,.402,.406,.295l1.632-.858c.081-.043,.179-.043,.26,0l1.632,.858c.205,.108,.445-.066,.406-.295l-.312-1.817c-.016-.091,.014-.183,.08-.247l1.32-1.287c.166-.162,.074-.443-.155-.477Z"/>
</svg>