<svg viewBox="0 0 24 24" xmlns="http://www.w3.org/2000/svg">
  <path d="M7.667,6.333c-.744,0-1.481,.147-2.169,.431-.688,.285-1.312,.702-1.838,1.228s-.944,1.151-1.228,1.838c-.285,.688-.431,1.424-.431,2.169s.147,1.481,.431,2.169c.285,.688,.702,1.312,1.228,1.838,.526,.526,1.151,.944,1.838,1.228,.688,.285,1.424,.431,2.169,.431s1.481-.147,2.169-.431c.688-.285,1.312-.702,1.838-1.228,.526-.526,.944-1.151,1.228-1.838,.285-.688,.431-1.424,.431-2.169s-.147-1.481-.431-2.169c-.285-.688-.702-1.312-1.228-1.838-.526-.526-1.151-.944-1.838-1.228-.688-.285-1.424-.431-2.169-.431Zm9,.667c-.35,0-.697,.129-1.021,.381-.323,.251-.617,.62-.865,1.084-.248,.464-.444,1.015-.578,1.622-.134,.607-.203,1.257-.203,1.913s.069,1.307,.203,1.913c.134,.607,.33,1.158,.578,1.622,.248,.464,.542,.833,.865,1.084,.324,.251,.67,.381,1.021,.381s.697-.129,1.02-.381c.324-.251,.618-.62,.865-1.084,.248-.464,.444-1.016,.578-1.622,.134-.607,.203-1.257,.203-1.913s-.069-1.307-.203-1.913-.33-1.158-.578-1.622c-.248-.464-.541-.833-.865-1.084-.323-.251-.67-.381-1.02-.381Zm4.333,.667c-.265,0-.52,.457-.707,1.269-.188,.813-.293,1.915-.293,3.064s.105,2.251,.293,3.064c.187,.813,.442,1.269,.707,1.269s.52-.457,.707-1.269c.188-.813,.293-1.915,.293-3.064s-.105-2.251-.293-3.064c-.187-.813-.442-1.269-.707-1.269Z"/>
</svg>