<svg viewBox="0 0 24 24" xmlns="http://www.w3.org/2000/svg">
  <path d="M12,5c0-.552,.448-1,1-1h8c.552,0,1,.448,1,1s-.448,1-1,1H13c-.552,0-1-.448-1-1Zm9,13H13c-.552,0-1,.448-1,1s.448,1,1,1h8c.552,0,1-.448,1-1s-.448-1-1-1Zm0-7H5.414l2.293-2.293c.391-.391,.391-1.023,0-1.414s-1.023-.391-1.414,0l-4,4c-.092,.092-.165,.203-.216,.325-.101,.244-.101,.52,0,.764,.051,.122,.124,.233,.216,.325l4,4c.195,.195,.451,.293,.707,.293s.512-.098,.707-.293c.391-.391,.391-1.023,0-1.414l-2.293-2.293h15.586c.552,0,1-.448,1-1s-.448-1-1-1Z"/>
</svg>