<svg xmlns="http://www.w3.org/2000/svg" viewBox="0 0 24 24">
  <path d="m20.8577,15.7858l-1.2314-3.7922.8027-.9342c.0064-.0074.0094-.0173.0082-.0271-.0012-.0098-.0063-.0186-.0144-.0244l-.3164-.2278.5305-.4841c.0077-.007.0119-.017.0115-.0273-.0005-.0104-.0054-.0201-.0137-.0264l-.3998-.3094.5261-.4012c.0088-.0067.0139-.017.0139-.0281,0-.011-.0052-.0213-.014-.028l-.3549-.2678.5931-2.8469c.0013-.0061.0009-.0124-.0011-.0183l-.893-2.6649c-.0002-.0007-.0009-.0012-.0012-.0019-.0005-.0012-.0006-.0026-.0012-.0038-.0013-.0023-.0032-.004-.0049-.006-.0008-.0009-.0013-.002-.0023-.0028-.0036-.0034-.0078-.006-.0126-.0076-.0002,0-.0004-.0003-.0006-.0004-.0007-.0002-.0015,0-.0022-.0002-.004-.0009-.0081-.0012-.0121-.0008-.0016.0002-.003.0005-.0045.0009-.0013.0003-.0027.0002-.0041.0007l-5.6964,2.1282h-4.7264L3.9334,3.6559c-.0013-.0005-.0027-.0004-.004-.0007-.0016-.0004-.0032-.0007-.0049-.0009-.0038-.0004-.0077-.0001-.0115.0008-.0009.0002-.0017,0-.0025.0002-.0002,0-.0004.0003-.0007.0004-.0047.0016-.009.0043-.0125.0076-.001.0009-.0015.002-.0024.0029-.0016.0018-.0035.0035-.0047.0057-.0007.0012-.0007.0025-.0012.0038-.0004.0007-.001.0013-.0013.0021l-.8859,2.6649c-.002.0059-.0023.0122-.001.0182l.5931,2.8467-.3616.2679c-.0089.0066-.0142.017-.0142.028s.0051.0215.0139.0282l.5264.4014-.3932.3094c-.0081.0064-.013.0161-.0134.0264-.0004.0103.0038.0203.0115.0272l.5305.4841-.3164.2278c-.008.0057-.0132.0145-.0144.0243-.0012.0098.0018.0195.0081.027l.7959.9343-1.2174,3.7923c-.0002.0008,0,.0016-.0002.0024-.0007.0027-.0006.0055-.0006.0083,0,.0026-.0002.0051.0004.0076.0002.0008,0,.0016.0001.0023l1.139,3.8883c.0045.0153.0186.0253.0338.0253.0031,0,.0062-.0004.0093-.0013l3.9693-1.092.7615.6229,1.568,1.0898c.0059.0042.0129.0063.02.0063h2.693c.0071,0,.0142-.0022.02-.0063l1.5773-1.0916.7593-.6213,3.9693,1.092c.0031.0009.0062.0013.0093.0013.0152,0,.0292-.01.0337-.0252l1.1461-3.8883c.0002-.0007,0-.0015.0002-.0023.0005-.0026.0004-.0052.0004-.0079,0-.0027,0-.0054-.0007-.0081-.0002-.0008,0-.0016-.0002-.0025Z" style="fill: #763d16;"/>
  <path d="m14.3765,5.7842h-.0133l5.6963-2.1283c.0013-.0005.0027-.0004.0041-.0007-.0045.0011-.0089.0026-.0127.0055l-6.6673,4.9485-.001-.0009,1.0268-2.7767c.004-.0108.0025-.0228-.0041-.0323-.0066-.0094-.0173-.0151-.0288-.0151ZM3.913,3.6551c.0038-.0009.0077-.0012.0115-.0008-.0039-.0004-.0077,0-.0115.0008Zm16.9455,12.1413c0-.0027,0-.0054-.0006-.0081.0007.0027.0006.0053.0006.0081ZM3.9099,3.6557c-.0047.0016-.009.0042-.0125.0076.0037-.0034.0079-.006.0125-.0076Zm16.9428,12.1616c.0029-.0039.0044-.0084.0054-.013-.0002.0008,0,.0015-.0001.0023l-1.1461,3.8883c-.0045.0152-.0185.0252-.0337.0252-.0031,0-.0062-.0004-.0093-.0012l-3.9693-1.092.0141-.0115c.002-.0017.0033-.0038.0049-.0058.0006-.0008.0016-.0011.0021-.0019l.0004-.0006h0s1.8524-2.7752,1.8524-2.7752h3.2507c.0113,0,.0218-.0054.0284-.0145ZM3.942,3.6606c-.0038-.0028-.0082-.0043-.0127-.0054.0013.0003.0027.0002.004.0007l5.7034,2.1283h-.0063c-.0115,0-.0222.0056-.0288.015s-.0082.0214-.0042.0322l1.0145,2.7797L3.942,3.6606Zm4.3443,14.9547l.0141.0115-3.9693,1.092c-.0031.0008-.0063.0012-.0094.0012-.0152,0-.0292-.01-.0337-.0253l-1.139-3.8883c-.0002-.0008,0-.0015-.0001-.0023.001.0046.0026.0092.0055.0131.0066.0091.0172.0145.0284.0145h3.2437l1.8524,2.7752h0s.0004.0006.0004.0006c.0006.0008.0015.0012.0021.0019.0016.002.0029.0041.0049.0058ZM3.895,3.6661c-.0025.0028-.0045.006-.0059.0095.0005-.0012.0006-.0026.0013-.0038.0012-.0022.0031-.0039.0047-.0058Zm-.7458,12.1222c-.0007.0028-.0006.0055-.0006.0083,0-.0029,0-.0056.0006-.0083Zm5.5134.1049l1.9566,1.5278-2.2681,1.1072.3115-2.635Zm1.9917-7.1119l.2395,3.948-3.8576-.1713,1.074-1.6245,2.5442-2.1522Zm5.2285,2.1522l1.0808,1.6245-3.8505.1713.2258-3.9478,2.5439,2.152Zm-2.4992-2.3244l-.0018.0014.0008-.0023.001.0009Zm-.0098,8.8118l1.963-1.5328.3121,2.6401-2.2751-1.1074Z" style="fill: #e2761b;"/>
  <path d="m8.279,18.607h0s0,0,0,0Zm7.4421,0h0s0,0,0,0Zm-7.37-.0787l-.0046.0389,2.1406,1.0125-.0129-.597c0-.001.0005-.0019.0006-.003,0-.0006-.0004-.0012-.0004-.0018l.1736-1.5343-.0288-.0225-2.2681,1.1072Zm5.1815.4493c0,.0007-.0004.0014-.0004.0021,0,.0011.0007.0021.0006.0033l-.0192.5964,2.14-1.0122-.0046-.0388-2.2751-1.1074-.0287.0224.1874,1.5341Z" style="fill: #d7c1b3;"/>
  <path d="m9.965,13.6211l.5284,1.1213-1.8172-.5348,1.2888-.5864Zm3.542,1.1212l1.8236-.5348-1.2888-.5864-.5348,1.1212Z" style="fill: #233447;"/>
  <path d="m6.4265,15.8318h.0184l2.1749.028.0428.0334-.3115,2.635-.0046.0389-.0228-.0108c-.0161-.0076-.0353-.002-.0448.013-.0081.0128-.0065.0288.0026.0402-.0006-.0008-.0016-.0011-.0021-.0019l-.0004-.0006h0s-1.8524-2.7752-1.8524-2.7752Zm6.6866-3.1025l-.002.0346.358,1.9895.0379-.0111.5348-1.1212,1.2888.5864.0819-.024,1.5697-1.5973-.0187-.0281-3.8505.1713Zm-6.0769-.1713l-.0185.028,1.5767,1.5975.0818.0241,1.2888-.5864.5284,1.1213.0376.0111.3648-1.9894-.0021-.0348-3.8576-.1713Zm8.6173,6.0091l.0228-.0108c.0161-.0075.0353-.0019.0448.013.0081.0128.0065.0288-.0026.0402.0006-.0008.0016-.0011.0021-.0019l.0004-.0006h0s1.8524-2.7752,1.8524-2.7752h-.0188l-2.1815.028-.0364.0284.3121,2.6401.0046.0388Z" style="fill: #cd6116;"/>
  <path d="m16.9823,12.5861l.0044.0065-1.5836,3.0736.0633-1.4501c.0005-.0113-.0045-.0222-.0134-.0292-.0089-.007-.0206-.0092-.0316-.0061l-.0088.0026,1.5697-1.5973Zm-6.4512,2.1674l.0375.011c.0126.0037.0221.0141.0246.027l.3936,2.0335-.0062-2.779-.0843-1.2775-.0003-.0044-.3648,1.9894Zm-3.5134-2.1675l-.0044.0066,1.5781,3.076-.0508-1.4527c-.0004-.0113.0046-.0221.0136-.029.0089-.0069.0207-.0091.0315-.0059l.0087.0026-1.5767-1.5975Zm6.0934.178l-.0002.0042s0,.0003,0,.0005l-.0914,1.2797-.0123,2.7778.3998-2.0348c.0025-.0129.012-.0233.0246-.027l.0376-.011-.358-1.9895Z" style="fill: #e4751f;"/>
  <path d="m15.7185,18.6095c.0091-.0115.0107-.0274.0026-.0402-.0095-.0149-.0287-.0205-.0448-.013l-.0228.0108-2.14,1.0122.0192-.5964c0-.0011-.0005-.0021-.0006-.0033.0008.0137-.0058.0268-.0181.0333-.0129.0069-.0286.005-.0397-.0047l-.1658-.1459h-2.6234l-.1515.145c-.0067.0064-.0154.0098-.0243.0098-.0053,0-.0106-.0012-.0156-.0036-.0127-.0063-.0198-.0197-.019-.0337,0,.001-.0006.0019-.0006.003l.0129.597-2.1406-1.0125-.0228-.0108c-.0161-.0076-.0353-.002-.0448.013-.0081.0128-.0065.0288.0026.0402.0016.002.0029.0041.0049.0058l.0141.0115.7615.6229,1.568,1.0898c.0059.0041.0129.0063.0201.0063h2.693c.0071,0,.0141-.0022.02-.0062l1.5772-1.0916.7593-.6213.0141-.0115c.002-.0017.0033-.0038.0049-.0058Z" style="fill: #c0ad9e;"/>
  <path d="m10.4744,18.9778c0,.0006.0004.0012.0004.0018-.0008.0141.0063.0274.019.0337.005.0025.0103.0036.0156.0036.0089,0,.0176-.0034.0243-.0098l.1515-.145h2.6234l.1658.1459c.011.0098.0267.0117.0397.0047.0123-.0065.0189-.0196.0181-.0333,0-.0007.0005-.0014.0004-.0021l-.1874-1.5341-.0024-.0197c-.0012-.01-.0067-.019-.015-.0247l-.3222-.2215v.0186c-.0002.0193-.0159.035-.0352.035h-1.9476c-.0194,0-.0351-.0157-.0352-.0351v-.0185s-.3223.2215-.3223.2215c-.0084.0058-.0139.0149-.015.025l-.0022.0195-.1736,1.5343Z" style="fill: #161616;"/>
  <path d="m20.8585,15.7964c0-.0027,0-.0054-.0006-.0081-.0002-.0008,0-.0017-.0002-.0025l-1.2314-3.7922-.0061-.0187c-.0036-.0111-.0124-.0196-.0236-.0229l-3.6774-1.0758c-.0142-.0042-.0295.001-.0382.0129s-.0091.028-.001.0403l.0027.0041,1.0808,1.6245.0187.0281.0044.0065-1.5836,3.0736.0633-1.4501c.0005-.0113-.0045-.0222-.0134-.0292-.0089-.007-.0206-.0092-.0316-.0061l-.0088.0026-.0819.024-1.8236.5348-.0379.0111-.0376.011c-.0126.0037-.0221.0141-.0246.027l-.3998,2.0348.0123-2.7778.0914-1.2797s0-.0003,0-.0005l.0002-.0042.002-.0346.2258-3.9478.0037-.0651.0392-.106.0008-.0023,1.0268-2.7767c.004-.0108.0025-.0228-.0041-.0323-.0066-.0094-.0173-.0151-.0288-.0151h-4.7461c-.0115,0-.0222.0056-.0288.015s-.0082.0214-.0042.0322l1.0145,2.7797.0385.1054.0039.0649.2395,3.948.0021.0348.0003.0044.0843,1.2775.0062,2.779-.3936-2.0335c-.0025-.0129-.012-.0233-.0246-.027l-.0375-.011-.0376-.0111-1.8172-.5348-.0818-.0241-.0087-.0026c-.0108-.0032-.0226-.001-.0315.0059-.0089.0069-.014.0177-.0136.029l.0508,1.4527-1.5781-3.076.0044-.0066.0185-.028,1.074-1.6245.0028-.0042c.0081-.0123.0077-.0284-.001-.0403s-.024-.0171-.0381-.0129l-3.6774,1.0758c-.0112.0033-.02.0119-.0236.023l-.006.0187-1.2174,3.7923c-.0003.0008,0,.0016-.0002.0024-.0007.0028-.0006.0055-.0006.0083,0,.0026-.0002.005.0004.0076.001.0046.0026.0092.0055.0131.0066.0091.0172.0145.0284.0145h3.262l2.1749.028.0428.0334,1.9566,1.5278.0288.0225.0022-.0195c.0012-.0101.0066-.0193.015-.025l.3222-.2215v.0185c0,.0194.0158.0351.0352.0351h1.9476c.0194,0,.0351-.0157.0352-.035v-.0186s.3223.2215.3223.2215c.0083.0057.0138.0147.015.0247l.0024.0197.0287-.0224,1.963-1.5328.0364-.0284,2.1815-.028h3.2695c.0113,0,.0218-.0054.0284-.0145.0029-.0039.0044-.0084.0054-.013.0006-.0026.0005-.0052.0004-.0079Z" style="fill: #f6851b;"/>
</svg>