<svg viewBox="0 0 24 24" xmlns="http://www.w3.org/2000/svg">
  <path fill="#f2b705" d="M11.999,2c-2.018,0-3.954,.802-5.381,2.229-1.427,1.427-2.229,3.363-2.229,5.381,0,.481,.045,.961,.135,1.433l.983-.672c1.729-1.186,4.532-1.186,6.26,0l1.032,.707,.56,.384c1.558,1.067,4.082,1.067,5.638,0l.459-.314c.227-1.106,.204-2.249-.065-3.345-.269-1.096-.779-2.119-1.493-2.995-.713-.875-1.612-1.581-2.632-2.066-1.02-.485-2.134-.737-3.264-.738l-.004-.004Z"/>
  <path fill="#53cbc8" d="M16.134,13.999c-1.087,.019-2.155-.287-3.069-.877l-1.59-1.089c-.865-.53-1.86-.811-2.875-.811s-2.01,.281-2.875,.811l-1.028,.704c-.048,.033-.103,.056-.16,.068-.057,.012-.117,.013-.174,.002-.058-.011-.113-.033-.162-.065-.049-.032-.091-.073-.125-.122-.033-.048-.056-.103-.068-.16s-.013-.117-.002-.174c.011-.058,.033-.113,.065-.162s.073-.091,.122-.125l1.027-.704c1.014-.631,2.185-.966,3.38-.966s2.365,.335,3.38,.966l1.59,1.089c.772,.472,1.659,.722,2.564,.722s1.792-.25,2.564-.722l.604-.413c.048-.033,.103-.056,.16-.068,.057-.012,.117-.013,.174-.002,.058,.011,.112,.033,.162,.065,.049,.032,.091,.073,.125,.122,.033,.048,.056,.103,.069,.16,.012,.057,.013,.117,.002,.174-.011,.058-.033,.113-.065,.162-.032,.049-.073,.091-.122,.125l-.603,.413c-.913,.59-1.981,.895-3.068,.877Zm-7.566,3.026v-4.3c-.003-.09,0-.181,.011-.271,.013-.118,.07-.228,.159-.307,.089-.079,.204-.123,.323-.123,.115,.003,.226,.049,.309,.128,.084,.079,.136,.187,.145,.302,.018,.149,.024,.3,.016,.45v8.574c.002,.067-.009,.133-.032,.196-.024,.062-.059,.12-.105,.168-.046,.049-.101,.088-.162,.115-.061,.027-.127,.042-.194,.043-.067-.004-.132-.021-.192-.051-.06-.03-.113-.072-.157-.123-.043-.051-.076-.111-.095-.175-.02-.064-.026-.131-.019-.198v-2.858l-.008-1.571Zm-.904-2.164v2.137c0,.364-.196,.608-.472,.599-.072-.007-.141-.029-.205-.063-.063-.034-.119-.081-.165-.137-.045-.056-.079-.121-.099-.19-.02-.069-.027-.142-.019-.213v-4.272c0-.374,.218-.627,.502-.612,.284,.015,.453,.241,.454,.615,.004,.713,.003,1.425,.003,2.137Zm2.776-.003v-1.502c0-.348,.185-.573,.46-.573,.069,.003,.138,.02,.2,.051,.063,.03,.119,.073,.164,.125,.046,.052,.081,.113,.102,.179,.022,.066,.03,.136,.024,.205,.01,1.023,.01,2.044,0,3.066,.009,.069,.003,.14-.017,.207-.02,.067-.055,.128-.101,.181-.046,.053-.103,.095-.167,.123-.064,.029-.133,.044-.203,.044-.282-.003-.463-.217-.466-.573v-1.533h.003Zm-5.598,.315v-1.502c0-.348,.185-.573,.46-.573,.069,.003,.138,.02,.2,.051,.063,.03,.119,.073,.164,.125,.046,.052,.081,.113,.102,.179,.022,.066,.03,.136,.024,.205,.009,1.022,.009,2.044,0,3.066,.009,.069,.003,.14-.018,.206-.02,.067-.055,.128-.101,.181-.046,.052-.103,.094-.167,.123-.064,.029-.133,.044-.203,.044-.28-.003-.463-.217-.466-.573v-1.533h.003Zm7.931-1.278c.125,0,.245,.05,.333,.138,.088,.089,.138,.208,.138,.334v.817c0,.125-.05,.245-.138,.333s-.208,.138-.333,.138-.245-.05-.334-.138c-.088-.088-.138-.208-.138-.333v-.817c0-.125,.05-.245,.138-.334,.088-.088,.209-.138,.334-.138Zm1.869,.715c.125,0,.245,.05,.333,.138,.088,.088,.138,.208,.138,.334v4.582c0,.125-.05,.245-.138,.334s-.208,.138-.333,.138c-.062,0-.123-.012-.181-.036-.057-.024-.109-.058-.153-.102-.044-.044-.079-.096-.102-.153-.024-.057-.036-.119-.036-.181v-4.582c0-.062,.012-.123,.036-.181,.024-.057,.058-.109,.102-.153,.044-.044,.096-.079,.153-.102,.057-.024,.119-.036,.181-.036Zm1.857,.178c.125,0,.245,.05,.334,.138,.088,.088,.138,.208,.138,.333v3.895c0,.062-.012,.123-.036,.18-.024,.057-.059,.109-.102,.153-.044,.044-.096,.078-.153,.102-.057,.024-.119,.036-.18,.036s-.123-.012-.181-.036c-.057-.024-.109-.058-.153-.102-.044-.044-.079-.096-.102-.153-.024-.057-.036-.118-.036-.18v-3.895c0-.125,.05-.245,.138-.333,.088-.088,.208-.138,.334-.138Zm1.881-.444c.125,0,.245,.05,.334,.138,.088,.088,.138,.208,.138,.333v1.68c0,.125-.05,.245-.138,.333-.088,.088-.208,.138-.334,.138s-.245-.05-.333-.138c-.088-.089-.138-.208-.138-.333v-1.68c0-.125,.05-.245,.138-.333,.088-.089,.208-.138,.333-.138Z"/>
</svg>