<svg xmlns="http://www.w3.org/2000/svg" viewBox="0 0 24 24">
  <path d="m7.5343,5.3676c.1131,1.4491.5079,2.8719,1.1805,4.2481,1.2003,2.4558,3.2137,4.4693,5.6695,5.6695,1.3753.6722,2.8005,1.068,4.248,1.181-1.4661,2.1859-3.9323,3.5338-6.6324,3.5338-.462,0-.9325-.0396-1.3984-.1176-3.2701-.5478-5.9364-3.2143-6.484-6.4844-.5344-3.1917.8403-6.3,3.4167-8.0303m.9941-2.6639c-.13,0-.2632.0252-.3932.0797-4.0942,1.7166-6.8061,6.0724-5.9902,10.9448.6895,4.1178,4.0084,7.4369,8.1261,8.1266.5847.0979,1.1627.1451,1.7289.1451,4.1519,0,7.7059-2.5322,9.2166-6.1352.2757-.6575-.1982-1.3972-.8934-1.3973-.0258,0-.0518.001-.0781.0031-.2457.0193-.4943.0295-.7451.0295-1.3457,0-2.7631-.2911-4.2375-1.0117-2.0569-1.0053-3.7455-2.6939-4.7508-4.7508-.8549-1.7492-1.1053-3.4185-.9822-4.9826.0469-.5966-.4487-1.0512-1.001-1.0512h0Z"/>
</svg>