<svg viewBox="0 0 24 24" xmlns="http://www.w3.org/2000/svg">
  <path fill="#52cbc7" d="M8.526,10c-.286,0-.528-.241-.503-.526,.267-3.067,2.841-5.474,5.977-5.474s5.711,2.407,5.977,5.474c.025,.285-.217,.526-.503,.526H8.526Z"/>
  <path fill="#e1137b" d="M8,19.5c0,.276-.224,.5-.5,.5s-.5-.224-.5-.5,.224-.5,.5-.5,.5,.224,.5,.5Zm-2.5-8.5c-.276,0-.5,.224-.5,.5s.224,.5,.5,.5,.5-.224,.5-.5-.224-.5-.5-.5Zm-3,2c-.276,0-.5,.224-.5,.5s.224,.5,.5,.5,.5-.224,.5-.5-.224-.5-.5-.5Zm9,4c-.276,0-.5,.224-.5,.5s.224,.5,.5,.5,.5-.224,.5-.5-.224-.5-.5-.5Zm-6-2c-.276,0-.5,.224-.5,.5s.224,.5,.5,.5,.5-.224,.5-.5-.224-.5-.5-.5Zm10,5h-6c-.276,0-.5-.224-.5-.5s.224-.5,.5-.5h6c.276,0,.5,.224,.5,.5s-.224,.5-.5,.5Zm3-2h-5c-.276,0-.5-.224-.5-.5s.224-.5,.5-.5h5c.276,0,.5,.224,.5,.5s-.224,.5-.5,.5Zm1-2h-6c-.276,0-.5-.224-.5-.5s.224-.5,.5-.5h6c.276,0,.5,.224,.5,.5s-.224,.5-.5,.5Zm-8,0H7.5c-.276,0-.5-.224-.5-.5s.224-.5,.5-.5h4c.276,0,.5,.224,.5,.5s-.224,.5-.5,.5Zm3-2H4.5c-.276,0-.5-.224-.5-.5s.224-.5,.5-.5H14.5c.276,0,.5,.224,.5,.5s-.224,.5-.5,.5Zm7-2H7.5c-.276,0-.5-.224-.5-.5s.224-.5,.5-.5h14c.276,0,.5,.224,.5,.5s-.224,.5-.5,.5Z"/>
</svg>