<svg viewBox="0 0 24 24" xmlns="http://www.w3.org/2000/svg">
  <path d="M16,14c-1.024,0-1.947,.396-2.655,1.028l-2.582-1.721c.143-.412,.237-.847,.237-1.307s-.094-.895-.237-1.307l2.582-1.721c.707,.632,1.631,1.028,2.655,1.028,2.209,0,4-1.791,4-4s-1.791-4-4-4-4,1.791-4,4c0,.46,.094,.895,.237,1.307l-2.582,1.721c-.707-.632-1.631-1.028-2.655-1.028-2.209,0-4,1.791-4,4s1.791,4,4,4c1.024,0,1.947-.396,2.655-1.028l2.582,1.721c-.143,.412-.237,.847-.237,1.307,0,2.209,1.791,4,4,4s4-1.791,4-4-1.791-4-4-4Z"/>
</svg>