<svg viewBox="0 0 24 24" xmlns="http://www.w3.org/2000/svg">
  <path d="M9,15c-.553,0-1-.448-1-1V6.414l-2.293,2.293c-.391,.391-1.023,.391-1.414,0s-.391-1.023,0-1.414L8.293,3.293c.097-.096,.207-.169,.326-.218,.116-.048,.244-.075,.378-.075h.006c.134,0,.262,.027,.378,.075,.119,.049,.229,.122,.326,.218l4,4c.391,.391,.391,1.023,0,1.414s-1.023,.391-1.414,0l-2.293-2.293v7.586c0,.552-.447,1-1,1Zm6.003,7h0c.134,0,.262-.027,.378-.075,.119-.049,.229-.122,.326-.218l4-4c.391-.391,.391-1.023,0-1.414s-1.023-.391-1.414,0l-2.293,2.293v-7.586c0-.552-.447-1-1-1s-1,.448-1,1v7.586l-2.293-2.293c-.391-.391-1.023-.391-1.414,0s-.391,1.023,0,1.414l4,4c.097,.096,.207,.169,.326,.218,.116,.048,.244,.075,.378,.075h.006Z"/>
</svg>