<svg viewBox="0 0 24 24" xmlns="http://www.w3.org/2000/svg">
  <path d="M16.761,6.451l1.571,2.872c.08,.146,.199,.265,.345,.345l2.872,1.571c.602,.329,.602,1.193,0,1.522l-2.872,1.571c-.146,.08-.265,.199-.345,.345l-1.571,2.872c-.329,.602-1.193,.602-1.522,0l-1.571-2.872c-.08-.146-.199-.265-.345-.345l-2.872-1.571c-.602-.329-.602-1.193,0-1.522l2.872-1.571c.146-.08,.265-.199,.345-.345l1.571-2.872c.329-.602,1.193-.602,1.522,0ZM5.493,12.301l-1.047,1.915c-.053,.097-.133,.177-.23,.23l-1.915,1.047c-.401,.219-.401,.795,0,1.015l1.915,1.047c.097,.053,.177,.133,.23,.23l1.047,1.915c.219,.401,.795,.401,1.015,0l1.047-1.915c.053-.097,.133-.177,.23-.23l1.915-1.047c.401-.219,.401-.795,0-1.015l-1.915-1.047c-.097-.053-.177-.133-.23-.23l-1.047-1.915c-.219-.401-.795-.401-1.015,0ZM7.619,4.226l-.785,1.436c-.04,.073-.1,.133-.172,.172l-1.436,.785c-.301,.165-.301,.597,0,.761l1.436,.785c.073,.04,.133,.1,.172,.172l.785,1.436c.165,.301,.597,.301,.761,0l.785-1.436c.04-.073,.1-.133,.172-.172l1.436-.785c.301-.165,.301-.597,0-.761l-1.436-.785c-.073-.04-.133-.1-.172-.172l-.785-1.436c-.165-.301-.597-.301-.761,0Z"/>
</svg>