<?xml version="1.0" encoding="UTF-8"?>
<svg id="Speaker" xmlns="http://www.w3.org/2000/svg" width="24" height="24" xmlns:xlink="http://www.w3.org/1999/xlink" viewBox="0 0 24 24">
  <defs>
    <clipPath id="clippath">
      <rect y="0" width="24" height="24" fill="none"/>
    </clipPath>
  </defs>
  <g id="Speaker-2" data-name="Speaker">
    <g clip-path="url(#clippath)">
      <path d="m12,8.2808v7.4385c0,.6201-.2803,1.1948-.7695,1.5767-.3564.2783-.7861.4243-1.2256.4243-.1631,0-.3271-.02-.4893-.0605l-3.5156-.8787v2.2191c0,.5522-.4473,1-1,1s-1-.4478-1-1v-2.744c-1.1877-.4213-2-1.5361-2-2.8175v-2.877c0-1.3789.9346-2.5757,2.2715-2.9106h.001l5.2432-1.3105c.5986-.1504,1.2266-.0176,1.7148.3638.4893.3818.7695.9565.7695,1.5767Zm4.2422,7.9619c1.1338-1.1333,1.7578-2.6401,1.7578-4.2427s-.624-3.1094-1.7578-4.2427c-.3906-.3906-1.0234-.3906-1.4141,0s-.3906,1.0239,0,1.4141c.7559.7559,1.1719,1.7603,1.1719,2.8286s-.416,2.0728-1.1719,2.8286c-.3906.3901-.3906,1.0234,0,1.4141.1953.1953.4512.293.707.293s.5117-.0977.707-.293Zm2.8291,2.8281c3.8994-3.8989,3.8994-10.2427,0-14.1416-.3906-.3906-1.0234-.3906-1.4141,0s-.3906,1.0234,0,1.4141c3.1191,3.1191,3.1191,8.1943,0,11.3135-.3906.3906-.3906,1.0234,0,1.4141.1953.1953.4512.293.707.293s.5117-.0977.707-.293Z"/>
    </g>
  </g>
</svg>