<svg viewBox="0 0 24 24" xmlns="http://www.w3.org/2000/svg">
  <path d="M12.716,2.451l2.331,4.723c.116,.236,.341,.399,.601,.437l5.212,.757c.655,.095,.916,.9,.443,1.362l-3.772,3.676c-.188,.183-.274,.448-.23,.707l.89,5.191c.112,.652-.573,1.15-1.159,.842l-4.662-2.451c-.233-.122-.511-.122-.743,0l-4.662,2.451c-.586,.308-1.27-.189-1.159-.842l.89-5.191c.044-.259-.041-.523-.23-.707l-3.772-3.676c-.474-.462-.212-1.267,.443-1.362l5.212-.757c.26-.038,.485-.201,.601-.437l2.331-4.723c.293-.593,1.139-.593,1.432,0Z"/>
</svg>