<?xml version="1.0" encoding="UTF-8"?>
<svg id="Stats" xmlns="http://www.w3.org/2000/svg" width="24" height="24" xmlns:xlink="http://www.w3.org/1999/xlink" viewBox="0 0 24 24">
  <defs>
    <style>
      .cls-1 {
        clip-path: url(#clippath);
      }

      .cls-2 {
        fill: none;
      }
    </style>
    <clipPath id="clippath">
      <rect class="cls-2" y="0" width="24" height="24"/>
    </clipPath>
  </defs>
  <g class="cls-1">
    <path d="m8,13v8c0,.552-.448,1-1,1h-2c-.552,0-1-.448-1-1v-8c0-.552.448-1,1-1h2c.552,0,1,.448,1,1Zm8-4v12c0,.552.448,1,1,1h2c.552,0,1-.448,1-1v-12c0-.552-.448-1-1-1h-2c-.552,0-1,.448-1,1Zm-6-6v18c0,.552.448,1,1,1h2c.552,0,1-.448,1-1V3c0-.552-.448-1-1-1h-2c-.552,0-1,.448-1,1Z"/>
  </g>
</svg>