<svg xmlns="http://www.w3.org/2000/svg" viewBox="0 0 24 24">
  <path d="m12,4h0c-.5523,0-1-.4477-1-1h0c0-.5523.4477-1,1-1h0c.5523,0,1,.4477,1,1h0c0,.5523-.4477,1-1,1Zm0,16h0c-.5523,0-1,.4477-1,1h0c0,.5523.4477,1,1,1h0c.5523,0,1-.4477,1-1h0c0-.5523-.4477-1-1-1ZM2,12h0c0,.5523.4477,1,1,1h0c.5523,0,1-.4477,1-1h0c0-.5523-.4477-1-1-1h0c-.5523,0-1,.4477-1,1Zm18,0h0c0,.5523.4477,1,1,1h0c.5523,0,1-.4477,1-1h0c0-.5523-.4477-1-1-1h0c-.5523,0-1,.4477-1,1ZM4.9289,4.9289h0c-.3905.3905-.3905,1.0237,0,1.4142h0c.3905.3905,1.0237.3905,1.4142,0h0c.3905-.3905.3905-1.0237,0-1.4142h0c-.3905-.3905-1.0237-.3905-1.4142,0Zm12.7279,12.7279h0c-.3905.3905-.3905,1.0237,0,1.4142h0c.3905.3905,1.0237.3905,1.4142,0h0c.3905-.3905.3905-1.0237,0-1.4142h0c-.3905-.3905-1.0237-.3905-1.4142,0Zm-12.7279,1.4142h0c.3905.3905,1.0237.3905,1.4142,0h0c.3905-.3905.3905-1.0237,0-1.4142h0c-.3905-.3905-1.0237-.3905-1.4142,0h0c-.3905.3905-.3905,1.0237,0,1.4142Zm12.7279-12.7279h0c.3905.3905,1.0237.3905,1.4142,0h0c.3905-.3905.3905-1.0237,0-1.4142h0c-.3905-.3905-1.0237-.3905-1.4142,0h0c-.3905.3905-.3905,1.0237,0,1.4142Zm-5.6569,2.6569c1.6542,0,3,1.3458,3,3s-1.3458,3-3,3-3-1.3458-3-3,1.3458-3,3-3m0-2c-2.7614,0-5,2.2386-5,5s2.2386,5,5,5,5-2.2386,5-5-2.2386-5-5-5h0Z"/>
</svg>