<svg viewBox="0 0 24 24" xmlns="http://www.w3.org/2000/svg">
  <path d="M12,4h0c-.552,0-1-.448-1-1h0c0-.552,.448-1,1-1h0c.552,0,1,.448,1,1h0c0,.552-.448,1-1,1Zm0,16h0c-.552,0-1,.448-1,1h0c0,.552,.448,1,1,1h0c.552,0,1-.448,1-1h0c0-.552-.448-1-1-1ZM2,12h0c0,.552,.448,1,1,1h0c.552,0,1-.448,1-1h0c0-.552-.448-1-1-1h0c-.552,0-1,.448-1,1Zm18,0h0c0,.552,.448,1,1,1h0c.552,0,1-.448,1-1h0c0-.552-.448-1-1-1h0c-.552,0-1,.448-1,1ZM4.929,4.929h0c-.391,.391-.391,1.024,0,1.414h0c.391,.391,1.024,.391,1.414,0h0c.391-.391,.391-1.024,0-1.414h0c-.391-.391-1.024-.391-1.414,0Zm12.728,12.728h0c-.391,.391-.391,1.024,0,1.414h0c.391,.391,1.024,.391,1.414,0h0c.391-.391,.391-1.024,0-1.414h0c-.391-.391-1.024-.391-1.414,0Zm-12.728,1.414h0c.391,.391,1.024,.391,1.414,0h0c.391-.391,.391-1.024,0-1.414h0c-.391-.391-1.024-.391-1.414,0h0c-.391,.391-.391,1.024,0,1.414ZM17.657,6.343h0c.391,.391,1.024,.391,1.414,0h0c.391-.391,.391-1.024,0-1.414h0c-.391-.391-1.024-.391-1.414,0h0c-.391,.391-.391,1.024,0,1.414Zm-5.657,.657c-2.761,0-5,2.239-5,5s2.239,5,5,5,5-2.239,5-5-2.239-5-5-5Z"/>
</svg>