<svg viewBox="0 0 24 24" xmlns="http://www.w3.org/2000/svg">
  <path d="M21.959,4.335c-.016-.072-.051-.138-.102-.192-.051-.054-.116-.094-.188-.115-.263-.051-.535-.032-.787,.055,0,0-17.523,6.111-18.524,6.788-.215,.147-.287,.23-.324,.33-.172,.485,.366,.695,.366,.695l4.516,1.428c.076,.013,.155,.009,.229-.013,1.027-.63,10.337-6.335,10.874-6.526,.085-.024,.147,0,.125,.059-.215,.728-8.257,7.665-8.301,7.708-.021,.017-.038,.039-.049,.064-.011,.025-.015,.052-.013,.079l-.421,4.28s-.177,1.334,1.195,0c.974-.945,1.909-1.729,2.375-2.108,1.552,1.041,3.224,2.191,3.945,2.79,.121,.114,.264,.203,.421,.262s.325,.086,.494,.081c.207-.025,.402-.11,.558-.245,.156-.135,.267-.312,.316-.509,0,0,3.201-12.464,3.307-14.142,.01-.164,.026-.263,.026-.385,.005-.129-.009-.258-.04-.383Z"/>
</svg>