<svg viewBox="0 0 24 24" xmlns="http://www.w3.org/2000/svg">
  <g clip-path="url(#a)">
    <path d="M12 24c6.627 0 12-5.373 12-12S18.627 0 12 0 0 5.373 0 12s5.373 12 12 12Z" fill="#005ECE" />
    <path d="m23.924 13.366-7.331-7.332-.024.001c-.433-.422-1.046-.778-1.778-1.032a7.547 7.547 0 0 0-1.386-.334 8.566 8.566 0 0 0-1.29-.093 8.96 8.96 0 0 0-1.655.155 7.097 7.097 0 0 0-1.332.389 5.255 5.255 0 0 0-.994.529c-.552.382-.939.845-1.098 1.354a1.842 1.842 0 0 0-.079.445l-.002.077v.528c-.65.441-1.08.992-1.187 1.598-.018.1-.027.2-.027.302v1.666c0 .83.601 1.58 1.568 2.116a2.076 2.076 0 0 0-.294.625 1.737 1.737 0 0 0-.06.45v1.665c0 .528.243 1.024.668 1.452l-.003.02 5.95 5.951a12.005 12.005 0 0 0 10.354-10.532Z" fill="#00479B" />
    <path d="M12.113 11.86c-2.85 0-5.16 1.32-5.16 2.95v1.665c0 1.629 2.31 2.95 5.16 2.95s5.16-1.321 5.16-2.95V14.81c0-1.628-2.31-2.948-5.16-2.948Z" fill="#FFA733" />
    <path d="M12.113 11.86v7.564c2.85 0 5.16-1.32 5.16-2.949V14.81c0-1.628-2.31-2.948-5.16-2.948Z" fill="#FF9811" />
    <path d="M12.113 17.758c2.85 0 5.16-1.32 5.16-2.948 0-1.629-2.31-2.95-5.16-2.95s-5.16 1.321-5.16 2.95c0 1.628 2.31 2.948 5.16 2.948Z" fill="#FFDA44" />
    <path d="M12.113 11.86v5.898c2.85 0 5.16-1.32 5.16-2.949 0-1.628-2.31-2.948-5.16-2.948Z" fill="#FFCD00" />
    <path d="M12.113 16.632c2.138 0 3.87-.903 3.87-2.017 0-1.114-1.732-2.017-3.87-2.017-2.137 0-3.87.903-3.87 2.017 0 1.114 1.733 2.017 3.87 2.017Z" fill="#fff" />
    <path d="M12.113 12.598v4.034c2.138 0 3.87-.903 3.87-2.017 0-1.114-1.732-2.017-3.87-2.017Z" fill="#E0E0E2" />
    <path d="M12.72 9.432c-2.85 0-5.16 1.32-5.16 2.95v1.665c0 1.629 2.31 2.949 5.16 2.949s5.16-1.32 5.16-2.949v-1.666c0-1.629-2.31-2.949-5.16-2.949Z" fill="#FFA733" />
    <path d="M12.72 9.432v7.564c2.85 0 5.16-1.32 5.16-2.949v-1.666c0-1.629-2.31-2.949-5.16-2.949Z" fill="#FF9811" />
    <path d="M12.72 15.33c2.85 0 5.16-1.32 5.16-2.95 0-1.628-2.31-2.948-5.16-2.948s-5.16 1.32-5.16 2.949c0 1.628 2.31 2.949 5.16 2.949Z" fill="#FFDA44" />
    <path d="M12.72 9.432v5.898c2.85 0 5.16-1.32 5.16-2.949 0-1.629-2.31-2.949-5.16-2.949Z" fill="#FFCD00" />
    <path d="M12.72 14.203c2.138 0 3.87-.903 3.87-2.017 0-1.114-1.732-2.017-3.87-2.017-2.137 0-3.87.903-3.87 2.017 0 1.114 1.733 2.017 3.87 2.017Z" fill="#fff" />
    <path d="M12.72 10.17v4.033c2.138 0 3.87-.903 3.87-2.017 0-1.113-1.732-2.016-3.87-2.016Z" fill="#E0E0E2" />
    <path d="M10.9 7.004c-2.85 0-5.16 1.32-5.16 2.949v1.666c0 1.628 2.31 2.949 5.16 2.949 2.849 0 5.16-1.32 5.16-2.949V9.953c0-1.629-2.311-2.949-5.16-2.949Z" fill="#FFA733" />
    <path d="M10.9 7.004v7.564c2.849 0 5.16-1.32 5.16-2.95V9.954c0-1.629-2.311-2.949-5.16-2.949Z" fill="#FF9811" />
    <path d="M10.9 12.902c2.849 0 5.16-1.32 5.16-2.95 0-1.628-2.311-2.948-5.16-2.948-2.85 0-5.16 1.32-5.16 2.949 0 1.628 2.31 2.949 5.16 2.949Z" fill="#FFDA44" />
    <path d="M10.9 7.004v5.897c2.849 0 5.16-1.32 5.16-2.948 0-1.629-2.311-2.949-5.16-2.949Z" fill="#FFCD00" />
    <path d="M10.9 11.775c2.137 0 3.87-.903 3.87-2.017 0-1.114-1.733-2.017-3.87-2.017-2.138 0-3.871.903-3.871 2.017 0 1.114 1.733 2.017 3.87 2.017Z" fill="#fff" />
    <path d="M10.9 7.741v4.034c2.136 0 3.87-.903 3.87-2.017 0-1.114-1.733-2.017-3.87-2.017Z" fill="#E0E0E2" />
    <path d="M12.113 4.576c-2.85 0-5.16 1.32-5.16 2.949V9.19c0 1.628 2.31 2.948 5.16 2.948s5.16-1.32 5.16-2.948V7.525c0-1.629-2.31-2.949-5.16-2.949Z" fill="#FFA733" />
    <path d="M12.113 4.576v7.563c2.85 0 5.16-1.32 5.16-2.948V7.525c0-1.629-2.31-2.949-5.16-2.949Z" fill="#FF9811" />
    <path d="M12.113 10.473c2.85 0 5.16-1.32 5.16-2.948 0-1.63-2.31-2.95-5.16-2.95s-5.16 1.32-5.16 2.95c0 1.628 2.31 2.948 5.16 2.948Z" fill="#FFDA44" />
    <path d="M12.113 4.576v5.897c2.85 0 5.16-1.32 5.16-2.948 0-1.629-2.31-2.949-5.16-2.949Z" fill="#FFCD00" />
    <path d="M12.113 9.347c2.138 0 3.87-.903 3.87-2.017 0-1.114-1.732-2.017-3.87-2.017-2.137 0-3.87.903-3.87 2.017 0 1.114 1.733 2.017 3.87 2.017Z" fill="#fff" />
    <path d="M12.113 5.313v4.034c2.138 0 3.87-.903 3.87-2.017 0-1.114-1.732-2.017-3.87-2.017Z" fill="#E0E0E2" />
  </g>
  <defs>
    <clipPath id="a">
      <path fill="#fff" d="M0 0h24v24H0z" />
    </clipPath>
  </defs>
</svg>