<svg viewBox="0 0 24 24" xmlns="http://www.w3.org/2000/svg">
  <path d="M8.283,20c7.547,0,11.676-6.157,11.676-11.487,0-.172,0-.347-.007-.519,.804-.573,1.498-1.282,2.049-2.095-.751,.326-1.546,.541-2.361,.638,.858-.505,1.501-1.3,1.809-2.236-.806,.47-1.689,.8-2.609,.976-.618-.649-1.437-1.078-2.329-1.222-.892-.144-1.807,.005-2.603,.425-.797,.42-1.431,1.086-1.804,1.897-.373,.81-.464,1.719-.259,2.586-1.632-.081-3.228-.498-4.685-1.225-1.457-.727-2.743-1.747-3.774-2.995-.523,.89-.683,1.943-.447,2.944,.236,1.002,.851,1.877,1.719,2.449-.651-.022-1.287-.194-1.857-.502v.055c.001,.932,.329,1.835,.929,2.557,.599,.722,1.434,1.217,2.361,1.403-.352,.096-.716,.143-1.081,.142-.258,0-.515-.023-.768-.07,.262,.802,.773,1.504,1.46,2.007,.687,.503,1.517,.781,2.373,.796-1.454,1.125-3.251,1.735-5.1,1.732-.326,.001-.651-.017-.975-.055,1.877,1.178,4.057,1.804,6.282,1.803Z"/>
</svg>