<svg viewBox="0 0 25 24" fill="none" xmlns="http://www.w3.org/2000/svg">
  <path d="M12.156 24c6.627 0 12-5.373 12-12s-5.373-12-12-12c-6.628 0-12 5.373-12 12s5.372 12 12 12Z" fill="#3E73C4"/>
  <path d="M15.172 13.593c0-1.593-.96-2.14-2.88-2.367-1.37-.182-1.645-.546-1.645-1.184 0-.637.458-1.047 1.371-1.047.823 0 1.28.273 1.509.957a.343.343 0 0 0 .32.227h.731a.31.31 0 0 0 .32-.319v-.045a2.28 2.28 0 0 0-2.057-1.867V6.856c0-.182-.137-.318-.365-.364h-.686c-.183 0-.32.136-.366.364v1.047c-1.371.182-2.24 1.092-2.24 2.23 0 1.502.914 2.094 2.834 2.322 1.28.227 1.692.501 1.692 1.23 0 .727-.64 1.228-1.509 1.228-1.188 0-1.6-.5-1.737-1.184-.045-.181-.183-.273-.32-.273h-.777a.313.313 0 0 0-.32.32v.044c.183 1.139.915 1.958 2.423 2.186v1.092c0 .182.137.32.365.364h.687c.182 0 .32-.136.365-.364v-1.093c1.372-.227 2.285-1.184 2.285-2.413Z" fill="#fff"/>
  <path d="M9.825 18.373c-3.566-1.275-5.394-5.235-4.068-8.74.685-1.912 2.193-3.368 4.068-4.051.183-.091.273-.228.273-.456V4.49c0-.182-.09-.318-.273-.364-.046 0-.138 0-.183.045a8.171 8.171 0 0 0-5.348 10.288 8.202 8.202 0 0 0 5.348 5.326c.183.091.366 0 .41-.182.046-.045.046-.091.046-.182v-.638c0-.136-.136-.318-.273-.41ZM14.67 4.17c-.184-.092-.367 0-.412.181-.045.046-.045.092-.045.183v.637c0 .182.136.364.274.455 3.565 1.275 5.394 5.235 4.068 8.74-.686 1.912-2.194 3.368-4.069 4.052-.183.09-.273.227-.273.455v.637c0 .182.09.318.274.364.045 0 .137 0 .182-.045a8.171 8.171 0 0 0 5.348-10.288 8.269 8.269 0 0 0-5.348-5.371Z" fill="#fff"/>
</svg>
