<svg width="295" height="220" viewBox="0 0 295 220" fill="none" xmlns="http://www.w3.org/2000/svg">
<mask id="path-1-outside-1_299_13248" maskUnits="userSpaceOnUse" x="30.2021" y="43.4391" width="235" height="58" fill="black">
<rect fill="white" x="30.2021" y="43.4391" width="235" height="58"/>
<path fill-rule="evenodd" clip-rule="evenodd" d="M226.622 48.4391L68.7693 48.4392L77.5604 61.1118L40.2021 61.1119L64.1464 95.6283H231.014L255.189 61.1117L217.746 61.1117L226.622 48.4391Z"/>
</mask>
<path fill-rule="evenodd" clip-rule="evenodd" d="M226.622 48.4391L68.7693 48.4392L77.5604 61.1118L40.2021 61.1119L64.1464 95.6283H231.014L255.189 61.1117L217.746 61.1117L226.622 48.4391Z" fill="#0D0D0F"/>
<path d="M68.7693 48.4392L68.7693 43.4392L59.2155 43.4392L64.661 51.2892L68.7693 48.4392ZM226.622 48.4391L230.717 51.3074L236.228 43.4391L226.622 43.4391L226.622 48.4391ZM77.5604 61.1118L77.5604 66.1118L87.1142 66.1118L81.6686 58.2619L77.5604 61.1118ZM40.2021 61.1119L40.2021 56.1119L30.6483 56.1119L36.0938 63.9618L40.2021 61.1119ZM64.1464 95.6283L60.0381 98.4783L61.5296 100.628H64.1464V95.6283ZM231.014 95.6283V100.628H233.617L235.11 98.4967L231.014 95.6283ZM255.189 61.1117L259.284 63.98L264.795 56.1117L255.189 56.1117L255.189 61.1117ZM217.746 61.1117L213.651 58.2434L208.14 66.1117L217.746 66.1117V61.1117ZM68.7693 53.4392L226.622 53.4391L226.622 43.4391L68.7693 43.4392L68.7693 53.4392ZM81.6686 58.2619L72.8776 45.5893L64.661 51.2892L73.4521 63.9618L81.6686 58.2619ZM40.2021 66.1119L77.5604 66.1118L77.5603 56.1118L40.2021 56.1119L40.2021 66.1119ZM68.2547 92.7784L44.3104 58.2619L36.0938 63.9618L60.0381 98.4783L68.2547 92.7784ZM231.014 90.6283H64.1464V100.628H231.014V90.6283ZM251.093 58.2433L226.919 92.76L235.11 98.4967L259.284 63.98L251.093 58.2433ZM217.746 66.1117L255.189 66.1117L255.189 56.1117L217.746 56.1117L217.746 66.1117ZM222.526 45.5707L213.651 58.2434L221.841 63.9801L230.717 51.3074L222.526 45.5707Z" fill="white" mask="url(#path-1-outside-1_299_13248)"/>
<path d="M92.3486 62.0924L203.042 62.0923L190.595 79.8644H104.677L92.3486 62.0924Z" fill="#5751FC"/>
<path d="M192.408 57.8395L193.88 56.1769L192.403 54.5193L149.398 6.2619L147.524 4.15948L145.659 6.26901L102.982 54.5264L101.522 56.1769L102.977 57.8324L145.653 106.418L147.524 108.548L149.403 106.425L192.408 57.8395Z" fill="#0D0D0F" stroke="white" stroke-width="5"/>
<path d="M147.555 20.849L116.352 56.2084L147.614 91.9567L179.039 56.2779L147.555 20.849Z" fill="#5751FC"/>
<path d="M147.614 91.9567L116.352 56.2084L155.625 47.2648L147.614 91.9567Z" fill="#1E2085"/>
<path d="M147.555 20.849L179.039 56.2779L155.625 47.2505L147.555 20.849Z" fill="#6B8BFF"/>
<rect x="11.3611" y="71.5975" width="272.608" height="40.7632" fill="white"/>
<path d="M11.3611 76.8676L16.6055 83.8787V106.417H24.1618V76.8676H11.3611Z" fill="#0D0D0F"/>
<path d="M40.5855 99.1141V76.8676H33.0293V106.417H50.7589V99.1141H40.5855Z" fill="#0D0D0F"/>
<path d="M65.2952 99.1141V76.8676H57.739V106.417H75.4687V99.1141H65.2952Z" fill="#0D0D0F"/>
<path d="M93.5579 107.05C100.354 107.05 105.251 103.04 105.251 96.7079V76.8676H97.6948V95.9903C97.6948 98.101 96.6394 99.7051 93.5579 99.7051C90.4763 99.7051 89.4209 98.101 89.4209 95.9903V76.8676H81.8647V96.7079C81.8647 103.04 86.7615 107.05 93.5579 107.05Z" fill="#0D0D0F"/>
<path d="M143.977 76.8676H136.463L128.907 89.4894L121.393 76.8676H113.837V106.417H121.393V90.5447L128.527 102.365H129.287L136.463 90.5025V106.417H143.977V76.8676Z" fill="#0D0D0F"/>
<path d="M152.893 76.8676V106.417H160.449V76.8676H152.893Z" fill="#0D0D0F"/>
<path d="M185.611 76.8676V91.7267L175.184 76.8676H169.316V106.417H176.873V91.5579L187.299 106.417H193.125V76.8676H185.611Z" fill="#0D0D0F"/>
<path d="M220.049 106.417H228.196L218.445 76.8676H209.242L199.491 106.417H207.68L208.947 102.153H218.782L220.049 106.417ZM210.888 95.6526L213.843 85.6058L216.841 95.6526H210.888Z" fill="#0D0D0F"/>
<path d="M252.726 76.8676H230.564V84.1705H237.867V106.417H245.423V84.1705H252.726V76.8676Z" fill="#0D0D0F"/>
<path d="M267.244 99.3252V94.9772H277.418V88.0119H267.244V83.9172H278.645L283.969 76.8676H259.688V106.417H278.684V99.3252H267.244Z" fill="#0D0D0F"/>
<path fill-rule="evenodd" clip-rule="evenodd" d="M0.824524 71.5908H45.8622V93.8374H52.4623V71.5908H70.5719V93.8374H76.588V71.5908H124.393L128.92 79.1953L133.472 71.5908H141.737L141.74 71.5864V71.5908H177.928L180.334 75.0204V71.5908H198.401V92.8798L205.427 71.5908H212.465L213.807 71.5908L215.169 71.5908H222.26L225.287 80.7644V71.5908H294.566L282.694 87.3108V94.0484H283.961V111.694H254.411V89.4471H250.7V111.694H216.112L214.845 107.43H212.884L211.617 111.694H184.556L182.149 108.264V111.694H131.187V107.641H126.67V111.694H108.56V104.408C107.743 105.846 106.684 107.138 105.405 108.244C102.195 111.022 97.9672 112.327 93.5578 112.327C89.1485 112.327 84.9207 111.022 81.7102 108.244C81.3733 107.953 81.0515 107.648 80.7454 107.331V111.694H11.3289V85.6339L0.824524 71.5908ZM16.6055 83.8787V106.417H24.1618V76.8675H11.3611L16.6055 83.8787ZM121.393 90.5447L128.527 102.364H129.287L136.463 90.5025V106.417H143.977V76.8675H136.463L128.907 89.4894L121.393 76.8675H113.837V106.417H121.393V90.5447ZM176.873 91.5578L187.299 106.417H193.125V76.8675H185.611V91.7267L175.184 76.8675H169.316V106.417H176.873V91.5578ZM218.782 102.153H208.947L207.68 106.417H199.491L209.242 76.8675H218.445L228.196 106.417H220.049L218.782 102.153ZM213.843 85.6057L210.888 95.6525H216.841L213.843 85.6057ZM232.59 102.894V89.4471H228.152L232.59 102.894ZM278.684 99.3251H267.244V94.9771H277.418V88.0119H267.244V83.9172H278.645L283.969 76.8675H259.688V106.417H278.684V99.3251ZM33.0293 106.417V76.8675H40.5855V99.114H50.7589V106.417H33.0293ZM57.739 106.417V76.8675H65.2952V99.114H75.4687V106.417H57.739ZM252.726 76.8675V84.1705H245.423V106.417H237.867V84.1705H230.564V76.8675H252.726ZM81.8647 96.7079C81.8647 103.04 86.7615 107.05 93.5578 107.05C100.354 107.05 105.251 103.04 105.251 96.7079V76.8675H97.6948V95.9902C97.6948 98.1009 96.6394 99.705 93.5578 99.705C90.4763 99.705 89.4209 98.1009 89.4209 95.9902V76.8675H81.8647V96.7079ZM160.449 76.8675H152.893V106.417H160.449V76.8675Z" fill="white"/>
<mask id="path-9-outside-2_299_13248" maskUnits="userSpaceOnUse" x="30.2021" y="107.766" width="235" height="112" fill="black">
<rect fill="white" x="30.2021" y="107.766" width="235" height="112"/>
<path fill-rule="evenodd" clip-rule="evenodd" d="M40.2021 112.767L255.189 112.766L231.014 147.283H64.1464L40.2021 112.767ZM86.0552 147.283L209.336 147.283L195.473 168.928H180.886L147.228 211.028L114.566 168.928H99.7856L86.0552 147.283Z"/>
</mask>
<path fill-rule="evenodd" clip-rule="evenodd" d="M40.2021 112.767L255.189 112.766L231.014 147.283H64.1464L40.2021 112.767ZM86.0552 147.283L209.336 147.283L195.473 168.928H180.886L147.228 211.028L114.566 168.928H99.7856L86.0552 147.283Z" fill="#0D0D0F"/>
<path d="M255.189 112.766L259.284 115.635L264.795 107.766L255.189 107.766V112.766ZM40.2021 112.767L40.2021 107.767L30.6483 107.767L36.0938 115.616L40.2021 112.767ZM231.014 147.283V152.283H233.617L235.11 150.151L231.014 147.283ZM64.1464 147.283L60.0381 150.133L61.5296 152.283H64.1464V147.283ZM209.336 147.283L213.546 149.98L218.476 142.283L209.336 142.283V147.283ZM86.0552 147.283L86.0551 142.283L76.9622 142.283L81.833 149.962L86.0552 147.283ZM195.473 168.928V173.928H198.208L199.684 171.625L195.473 168.928ZM180.886 168.928V163.928H178.482L176.981 165.806L180.886 168.928ZM147.228 211.028L143.277 214.092L147.169 219.108L151.133 214.15L147.228 211.028ZM114.566 168.928L118.517 165.863L117.015 163.928H114.566V168.928ZM99.7856 168.928L95.5635 171.606L97.0362 173.928H99.7856V168.928ZM255.189 107.766L40.2021 107.767L40.2021 117.767L255.189 117.766V107.766ZM235.11 150.151L259.284 115.635L251.093 109.898L226.919 144.415L235.11 150.151ZM64.1464 152.283H231.014V142.283H64.1464V152.283ZM36.0938 115.616L60.0381 150.133L68.2547 144.433L44.3104 109.917L36.0938 115.616ZM209.336 142.283L86.0551 142.283L86.0552 152.283L209.336 152.283V142.283ZM199.684 171.625L213.546 149.98L205.125 144.586L191.263 166.231L199.684 171.625ZM180.886 173.928H195.473V163.928H180.886V173.928ZM151.133 214.15L184.791 172.05L176.981 165.806L143.322 207.905L151.133 214.15ZM110.616 171.993L143.277 214.092L151.178 207.963L118.517 165.863L110.616 171.993ZM99.7856 173.928H114.566V163.928H99.7856V173.928ZM81.833 149.962L95.5635 171.606L104.008 166.25L90.2773 144.605L81.833 149.962Z" fill="white" mask="url(#path-9-outside-2_299_13248)"/>
<g clip-path="url(#clip0_299_13248)">
<circle cx="147.329" cy="183.245" r="17.9446" fill="white" stroke="white" stroke-width="13.9825"/>
<path d="M147.329 191.279L151.214 193.522V198.008L147.329 200.251L143.444 198.008V193.522L147.329 191.279Z" fill="#5751FC"/>
<path d="M136.065 184.662L139.95 186.905V191.392L136.065 193.635L132.18 191.392V186.905L136.065 184.662Z" fill="#5751FC"/>
<path d="M136.065 172.699L139.95 174.942V179.429L136.065 181.672L132.18 179.429V174.942L136.065 172.699Z" fill="#5751FC"/>
<path d="M158.593 184.662L162.478 186.905V191.392L158.593 193.635L154.708 191.392V186.905L158.593 184.662Z" fill="#5751FC"/>
<path d="M147.329 165.617L151.483 168.015V172.812L147.329 175.21L143.175 172.812V168.015L147.329 165.617Z" fill="#5751FC"/>
<path d="M158.593 172.078L162.747 174.476V179.273L158.593 181.672L154.439 179.273V174.476L158.593 172.078Z" fill="#5751FC"/>
<path d="M147.329 178.759L151.214 181.002V185.488L147.329 187.731L143.444 185.488V181.002L147.329 178.759Z" fill="#5751FC"/>
</g>
<rect x="145.009" y="200.66" width="4.82056" height="3.64351" fill="#5751FC"/>
<path d="M132.21 190.764L129.762 191.671L147.175 213.075L165.359 190.764L162.865 188.95L152.934 202.373L146.812 208.994L143.729 204.776L132.21 190.764Z" fill="white"/>
<path d="M147.301 203.768L110.028 155.939H185.591L147.301 203.768Z" stroke="#0D0D0F" stroke-width="9"/>
<path d="M86.9886 124.261H87.4886V123.761V119.21V118.71H86.9886H74.4301H73.9301V119.21V139.895V140.395H74.4301H79.158H79.658V139.895V132.801H86.8409H87.3409V132.301V127.75V127.25H86.8409H79.658V124.261H86.9886ZM105.697 140.047L105.808 140.395H106.174H111.345H112.043L111.818 139.734L104.786 119.049L104.67 118.71H104.312H98.2842H97.926L97.8108 119.049L90.778 139.734L90.5533 140.395H91.2514H96.4225H96.7881L96.899 140.047L97.8224 137.145H104.774L105.697 140.047ZM128.77 118.71H128.27V119.21V128.872L121.199 118.921L121.05 118.71H120.792H117.246H116.746V119.21V139.895V140.395H117.246H121.974H122.474V139.895V130.233L129.544 140.185L129.694 140.395H129.952H133.498H133.998V139.895V119.21V118.71H133.498H128.77ZM155.567 119.21V118.71H155.067H139.701H139.201V119.21V123.761V124.261H139.701H144.52V139.895V140.395H145.02H149.748H150.248V139.895V124.261H155.067H155.567V123.761V119.21ZM172.475 140.047L172.585 140.395H172.951H178.122H178.82L178.596 139.734L171.563 119.049L171.448 118.71H171.089H165.061H164.703L164.588 119.049L157.555 139.734L157.33 140.395H158.029H163.2H163.565L163.676 140.047L164.6 137.145H171.551L172.475 140.047ZM193.482 126.016L193.716 126.506L194.185 126.231L198.174 123.897L198.577 123.661L198.37 123.244C196.777 120.027 193.942 118.297 190.357 118.297C186.594 118.297 182.913 120.744 182.913 125.091C182.913 127.22 183.733 128.717 184.979 129.781C186.202 130.825 187.81 131.433 189.366 131.866L189.367 131.867C190.931 132.299 191.938 132.624 192.557 132.978C192.858 133.151 193.033 133.312 193.135 133.465C193.232 133.611 193.285 133.781 193.285 134.015C193.285 134.286 193.196 134.548 192.92 134.758C192.622 134.986 192.047 135.199 190.977 135.199C189.896 135.199 189.101 134.934 188.498 134.502C187.891 134.067 187.438 133.435 187.093 132.635L186.87 132.118L186.383 132.4L182.305 134.764L181.938 134.977L182.088 135.374C183.322 138.633 186.301 140.809 190.83 140.809C193.158 140.809 195.198 140.196 196.668 139.018C198.15 137.831 199.012 136.097 199.012 133.956C199.012 131.603 198.052 130.09 196.66 129.062C195.307 128.063 193.557 127.532 192.009 127.065C190.401 126.578 189.548 126.192 189.098 125.849C188.883 125.686 188.779 125.545 188.723 125.425C188.666 125.303 188.641 125.164 188.641 124.972C188.641 124.718 188.75 124.47 189.002 124.273C189.261 124.071 189.697 123.906 190.357 123.906C191.216 123.906 191.825 124.112 192.294 124.453C192.77 124.8 193.146 125.318 193.482 126.016ZM221.4 119.45L221.803 118.71H220.961H215.583H215.272L215.134 118.989L211.653 126.057L208.171 118.989L208.034 118.71H207.723H202.345H201.503L201.906 119.45L208.789 132.074V139.895V140.395H209.289H214.017H214.517V139.895V132.074L221.4 119.45ZM103.037 131.712H99.5595L101.298 126.263L103.037 131.712ZM169.814 131.712H166.337L168.075 126.263L169.814 131.712Z" fill="white" stroke="#0D0D0F"/>
<path d="M110.972 157.396V148.012H108.223V160.042H115.269V157.396H110.972Z" fill="white"/>
<path d="M122.839 157.396V155.265H127.136V152.652H122.839V150.659H127.565V148.012H120.089V160.042H127.651V157.396H122.839Z" fill="white"/>
<path d="M140.628 160.042H143.635L139.545 148.012H136.039L131.948 160.042H134.956L135.558 158.152H140.026L140.628 160.042ZM136.383 155.574L137.792 151.157L139.201 155.574H136.383Z" fill="white"/>
<path d="M159.744 153.34H153.711V155.746H156.925C156.496 156.897 155.447 157.602 153.849 157.602C151.512 157.602 150.068 156.107 150.068 154.062C150.068 151.948 151.58 150.452 153.608 150.452C154.966 150.452 156.049 151.071 156.547 151.862L158.885 150.521C157.871 148.906 155.928 147.771 153.626 147.771C150.085 147.771 147.318 150.556 147.318 154.044C147.318 157.499 150.034 160.283 153.815 160.283C157.183 160.283 159.744 158.049 159.744 154.371V153.34Z" fill="white"/>
<path d="M169.374 160.283C172.02 160.283 174.014 158.736 174.014 156.158V148.012H171.264V155.918C171.264 156.829 170.835 157.602 169.374 157.602C167.913 157.602 167.483 156.829 167.483 155.918V148.012H164.733V156.158C164.733 158.736 166.727 160.283 169.374 160.283Z" fill="white"/>
<path d="M182.356 157.396V155.265H186.653V152.652H182.356V150.659H187.082V148.012H179.606V160.042H187.168V157.396H182.356Z" fill="white"/>
<defs>
<clipPath id="clip0_299_13248">
<rect x="131.579" y="171.826" width="31.8114" height="31.3435" rx="15.6718" fill="white"/>
</clipPath>
</defs>
</svg>
